<svg width="324" height="62" viewBox="0 0 324 62" fill="none" xmlns="http://www.w3.org/2000/svg">
    <path d="M1 0.5V61.5" stroke="#7C7979" stroke-width="1.87129"/>
    <g clip-path="url(#clip0_9052_31237)">
        <path fill-rule="evenodd" clip-rule="evenodd"
              d="M21.9062 30.7311C21.9062 43.5009 32.0496 53.8254 44.5478 53.8254C57.0459 53.8254 67.1893 43.5009 67.1893 30.7311C67.1893 17.9612 57.0459 7.63672 44.5478 7.63672C32.0496 7.63672 21.9062 17.9612 21.9062 30.7311Z"
              fill="url(#paint0_linear_9052_31237)"/>
        <path fill-rule="evenodd" clip-rule="evenodd"
              d="M42.9182 20.3132C42.7371 20.3132 42.6465 20.2226 42.6465 20.0415V7.2717C42.7371 7.09057 42.8276 7 43.0087 7C43.1899 7 43.2804 7.09057 43.2804 7.2717V20.0415C43.1899 20.2226 43.0993 20.3132 42.9182 20.3132Z"
              fill="#417505"/>
        <path fill-rule="evenodd" clip-rule="evenodd"
              d="M40.926 18.683C40.7449 18.683 40.6543 18.5925 40.6543 18.4113V7.2717C40.6543 7.09057 40.8354 7 40.926 7C41.1071 7 41.1977 7.09057 41.1977 7.2717V18.4113C41.1977 18.5925 41.1071 18.683 40.926 18.683Z"
              fill="#417505"/>
        <path fill-rule="evenodd" clip-rule="evenodd"
              d="M46.7209 20.3132C46.5398 20.3132 46.4492 20.2226 46.4492 20.0415V7.2717C46.4492 7.09057 46.5398 7 46.7209 7C46.902 7 46.9926 7.09057 46.9926 7.2717V20.0415C46.9926 20.2226 46.8115 20.3132 46.7209 20.3132Z"
              fill="#417505"/>
        <path fill-rule="evenodd" clip-rule="evenodd"
              d="M48.4436 18.683C48.2624 18.683 48.1719 18.5925 48.1719 18.4113V7.2717C48.1719 7.09057 48.353 7 48.4436 7C48.6247 7 48.7153 7.09057 48.7153 7.2717V18.4113C48.7153 18.5925 48.6247 18.683 48.4436 18.683Z"
              fill="#417505"/>
        <path fill-rule="evenodd" clip-rule="evenodd"
              d="M41.9238 20.5877C41.3804 20.2254 40.9275 19.8631 40.3841 19.5009C40.1124 19.3197 39.9313 19.1386 39.8407 18.8669V7.90842C39.8407 7.81785 39.7502 7.63672 39.6596 7.63672H39.3879C39.3879 11.0782 39.2973 17.1462 39.3879 20.316C39.3879 21.2216 39.7502 22.0367 40.5653 22.4895C41.3804 22.9424 42.1049 23.3952 43.0105 23.848C42.92 23.2141 42.92 22.4895 42.8294 21.8556C42.6483 21.3122 42.286 20.9499 41.9238 20.5877Z"
              fill="#417505"/>
        <path fill-rule="evenodd" clip-rule="evenodd"
              d="M41.3779 24.3905C40.6534 23.9376 40.0195 23.3942 39.2949 22.9414C39.2949 23.3942 39.2949 23.7565 39.2949 24.2999C39.2949 25.2056 39.6572 25.9301 40.2911 26.3829C41.1062 26.9263 42.0119 27.4697 42.827 28.1037C42.827 27.7414 42.7364 27.2886 42.7364 26.9263C42.7364 25.3867 42.2836 24.9339 41.3779 24.3905Z"
              fill="#417505"/>
        <path fill-rule="evenodd" clip-rule="evenodd"
              d="M41.3779 28.5575C40.6534 28.1046 40.0195 27.5612 39.2949 27.1084C39.2949 27.5612 39.2949 27.9235 39.2949 28.4669C39.2949 29.3725 39.6572 30.0971 40.2911 30.5499C41.1062 31.0933 42.0119 31.6367 42.827 32.2707C42.827 31.9084 42.7364 31.4556 42.7364 31.0933C42.7364 29.5537 42.2836 29.1009 41.3779 28.5575Z"
              fill="#417505"/>
        <path fill-rule="evenodd" clip-rule="evenodd"
              d="M41.3779 32.4491C40.6534 31.9962 40.0195 31.4528 39.2949 31C39.2949 31.4528 39.2949 31.8151 39.2949 32.3585C39.2949 33.2642 39.6572 33.9887 40.2911 34.4415C41.1062 34.9849 42.0119 35.5283 42.827 36.1623C42.827 35.8 42.7364 35.3472 42.7364 34.9849C42.7364 33.4453 42.2836 32.9925 41.3779 32.4491Z"
              fill="#417505"/>
        <path fill-rule="evenodd" clip-rule="evenodd"
              d="M41.3779 36.617C40.6534 36.1642 40.0195 35.6208 39.2949 35.168C39.2949 35.6208 39.2949 35.9831 39.2949 36.5265C39.2949 37.4321 39.6572 38.1566 40.2911 38.6095C41.1062 39.1529 42.0119 39.6963 42.827 40.3302C42.827 39.968 42.7364 39.5151 42.7364 39.1529C42.7364 37.6133 42.2836 37.251 41.3779 36.617Z"
              fill="#417505"/>
        <path fill-rule="evenodd" clip-rule="evenodd"
              d="M50.3453 20.316C50.3453 17.7801 50.3453 13.1612 50.3453 9.71974V7.90842V7.81785C50.3453 7.72728 50.3453 7.63672 50.3453 7.63672H50.0736H49.983C49.8925 7.63672 49.8019 7.72728 49.8019 7.90842V18.9575C49.7113 19.1386 49.5302 19.4103 49.2585 19.5009C48.7151 19.8631 48.2623 20.2254 47.7189 20.5877C47.2661 20.9499 46.9944 21.3122 46.9038 21.8556C46.8132 22.4895 46.8132 23.2141 46.7227 23.848C47.5378 23.3952 48.3528 22.9424 49.1679 22.4895C49.983 22.0367 50.3453 21.2216 50.3453 20.316Z"
              fill="#417505"/>
        <path fill-rule="evenodd" clip-rule="evenodd"
              d="M50.3446 22.8486C49.62 23.392 48.8955 23.8449 48.2616 24.2977C47.3559 24.8411 46.8125 25.2939 46.9031 26.743C46.9031 27.1052 46.8125 27.5581 46.8125 27.9203C47.6276 27.3769 48.5333 26.8335 49.3483 26.1996C50.0729 25.7467 50.4351 25.0222 50.3446 24.1166C50.3446 23.6637 50.3446 23.3015 50.3446 22.8486Z"
              fill="#417505"/>
        <path fill-rule="evenodd" clip-rule="evenodd"
              d="M50.3446 27.1084C49.62 27.6518 48.8955 28.1046 48.2616 28.5575C47.3559 29.1008 46.8125 29.5537 46.9031 31.0027C46.9031 31.365 46.8125 31.8178 46.8125 32.1801C47.6276 31.6367 48.5333 31.0933 49.3483 30.4593C50.0729 30.0065 50.4351 29.282 50.3446 28.3763C50.3446 27.9235 50.3446 27.4707 50.3446 27.1084Z"
              fill="#417505"/>
        <path fill-rule="evenodd" clip-rule="evenodd"
              d="M50.3446 31C49.62 31.5434 48.8955 31.9962 48.2616 32.4491C47.3559 32.9925 46.8125 33.4453 46.9031 34.8943C46.9031 35.2566 46.8125 35.7094 46.8125 36.0717C47.6276 35.5283 48.5333 34.9849 49.3483 34.3509C50.0729 33.8981 50.4351 33.1736 50.3446 32.2679C50.3446 31.8151 50.3446 31.3623 50.3446 31Z"
              fill="#417505"/>
        <path fill-rule="evenodd" clip-rule="evenodd"
              d="M50.3446 35.168C49.62 35.7114 48.8955 36.1642 48.2616 36.617C47.3559 37.1604 46.8125 37.6133 46.9031 39.0623C46.9031 39.4246 46.8125 39.8774 46.8125 40.2397C47.6276 39.6963 48.5333 39.1529 49.3483 38.5189C50.0729 38.0661 50.4351 37.3416 50.3446 36.4359C50.3446 35.9831 50.3446 35.6208 50.3446 35.168Z"
              fill="#417505"/>
        <path fill-rule="evenodd" clip-rule="evenodd"
              d="M45.0007 18.7736V7H44.729H44.4573V18.7736C44.4573 19.5887 44.1856 20.4038 43.7328 21.1283C43.1894 22.034 43.0988 23.1208 43.5517 24.117C43.7328 24.4792 43.8234 24.3887 44.0951 24.117C44.2762 23.8453 44.4573 23.6642 44.6384 23.3925C44.8196 23.6642 45.0007 23.8453 45.1818 24.117C45.4535 24.3887 45.5441 24.4792 45.7252 24.117C46.2686 23.1208 46.1781 22.1245 45.5441 21.1283C45.2724 20.4943 45.0007 19.6792 45.0007 18.7736Z"
              fill="#417505"/>
        <path fill-rule="evenodd" clip-rule="evenodd"
              d="M44.6382 24.1152C44.2759 24.4775 44.0042 24.7492 43.8231 25.1115C43.1891 26.0171 43.0986 27.0133 43.642 28.1001C43.8231 28.4624 44.0042 28.4624 44.2759 28.1001C44.4571 27.919 44.5476 27.6473 44.6382 27.4662C44.7288 27.6473 44.9099 27.919 45.0005 28.1001C45.2721 28.4624 45.4533 28.4624 45.6344 28.1001C46.1778 27.1039 46.0872 26.1077 45.4533 25.1115C45.2721 24.7492 45.0005 24.3869 44.6382 24.1152C44.7288 24.1152 44.7288 24.1152 44.6382 24.1152Z"
              fill="#417505"/>
        <path fill-rule="evenodd" clip-rule="evenodd"
              d="M43.642 32.1763C43.8231 32.5386 44.0042 32.5386 44.2759 32.1763C44.4571 31.9952 44.5476 31.7235 44.6382 31.5424C44.7288 31.7235 44.9099 31.9952 45.0005 32.1763C45.2721 32.5386 45.4533 32.5386 45.6344 32.1763C46.1778 31.1801 46.0872 30.1839 45.4533 29.1876C45.1816 28.8254 44.9099 28.5537 44.7288 28.1914H44.6382H44.5476C44.2759 28.4631 44.0042 28.8254 43.8231 29.1876C43.1891 30.1839 43.0986 31.1801 43.642 32.1763Z"
              fill="#417505"/>
        <path fill-rule="evenodd" clip-rule="evenodd"
              d="M43.642 36.4351C43.8231 36.7974 44.0042 36.7974 44.2759 36.4351C44.4571 36.254 44.5476 35.9823 44.6382 35.8011C44.7288 35.9823 44.9099 36.254 45.0005 36.4351C45.2721 36.7974 45.4533 36.7974 45.6344 36.4351C46.1778 35.4389 46.0872 34.4426 45.4533 33.4464C45.1816 33.0842 44.9099 32.8125 44.7288 32.4502H44.6382H44.5476C44.2759 32.7219 44.0042 33.0842 43.8231 33.4464C43.1891 34.4426 43.0986 35.4389 43.642 36.4351Z"
              fill="#417505"/>
        <path fill-rule="evenodd" clip-rule="evenodd"
              d="M44.6405 36.7031C44.6405 36.7031 43.1914 38.0616 43.1914 39.239C43.1914 40.1446 44.0065 41.1409 44.3688 41.5937V50.7409H44.9122V41.5937C45.2744 41.1409 45.999 40.1446 45.999 39.239C46.0895 37.971 44.6405 36.7031 44.6405 36.7031Z"
              fill="#417505"/>
        <path fill-rule="evenodd" clip-rule="evenodd"
              d="M32.4108 11.7095L32.3202 11.8C29.241 14.0642 19.3693 22.3962 22.9014 36.2528C24.9844 44.4944 30.3278 48.9321 34.4938 51.1962C38.9316 53.551 42.9165 54.0944 44.275 54.0038C44.275 52.283 43.9127 45.7623 40.1089 40.8717C36.0334 35.6189 34.4033 32.3585 34.675 29.9132C34.7655 28.917 34.7655 28.4642 34.675 28.283C33.8599 28.8264 31.324 33.2642 33.5882 39.5132L34.9466 43.2264L32.7731 40.0566C32.5014 39.6038 26.0712 30.3661 28.2448 21.5812C29.7844 15.6038 31.8674 13.2491 32.8636 12.0717C33.1353 11.7095 33.2259 11.5283 33.2259 11.5283C33.2259 11.5283 33.1353 11.5283 33.0448 11.5283C32.8636 11.5283 32.6825 11.5283 32.4108 11.7095Z"
              fill="url(#paint1_linear_9052_31237)"/>
        <path fill-rule="evenodd" clip-rule="evenodd"
              d="M45.4542 53.8195C46.8127 54.0006 50.9787 53.4572 55.4165 51.0119C59.5825 48.7478 64.9259 44.4006 67.0089 36.1591C70.541 22.3025 60.5787 13.8798 57.4995 11.7063L57.4089 11.6157C57.0467 11.344 56.6844 11.344 56.5938 11.4346C56.5938 11.4346 56.5938 11.6157 56.8655 11.978C57.8618 13.1553 60.0353 15.51 61.575 21.4874C63.8391 30.2723 57.3184 39.51 57.0467 39.9629L54.7825 43.1327L56.141 39.4195C58.5863 32.8081 55.5976 28.461 55.1448 28.1893H55.0542C54.9636 28.3704 54.9636 28.8232 55.0542 29.8195C55.3259 32.1742 53.6957 35.4346 49.6203 40.778C45.907 45.4874 45.5448 52.0987 45.4542 53.8195ZM45.9976 54.9063C45.4542 54.9063 45.0014 54.8157 44.8203 54.7251L44.458 54.6346V54.2723C44.458 53.91 44.2769 45.9402 48.8957 40.0534C52.6995 35.1629 54.4203 31.993 54.1486 29.91C53.9674 28.3704 54.058 27.5553 54.6014 27.193C54.8731 27.0119 55.2353 26.9213 55.7787 27.2836C56.5938 27.827 58.7674 31.178 58.0429 36.1591C59.7636 32.7176 62.0278 27.0119 60.6693 21.6685C59.2203 15.9629 57.2278 13.6987 56.2316 12.6119C55.507 11.7968 55.5976 11.0723 55.8693 10.6195C56.3221 10.0761 57.3184 10.0761 58.0429 10.6195L58.1335 10.8006C61.3938 13.1553 71.7184 21.8497 68.0957 36.4308C65.9221 45.0346 60.307 49.5629 55.9599 51.9176C51.975 54.0912 48.0806 54.9063 45.9976 54.9063Z"
              fill="#231F20"/>
        <path fill-rule="evenodd" clip-rule="evenodd"
              d="M32.9559 11.3462C32.7747 11.3462 32.5936 11.4368 32.3219 11.6179L32.2313 11.7085C29.1521 13.882 19.2804 22.2141 22.8125 36.1613C24.8955 44.4028 30.2389 48.8405 34.4049 51.1047C38.8427 53.4594 42.8276 54.0028 44.1861 53.9122C44.1861 52.1915 43.8238 45.6707 40.02 40.7802C35.9446 35.5273 34.3144 32.267 34.5861 29.8217C34.6766 28.8254 34.6766 28.3726 34.5861 28.1915C34.5861 28.1915 34.5861 28.1915 34.4955 28.1915C33.771 28.6443 31.2351 33.1726 33.4993 39.4217L34.8578 43.1349L32.5936 39.8745C32.3219 39.5122 25.8917 30.1839 28.0653 21.399C29.6049 15.4217 31.6879 13.067 32.6842 11.8896C32.9559 11.5273 32.9559 11.3462 32.9559 11.3462C33.0464 11.3462 33.0464 11.3462 32.9559 11.3462ZM33.8615 52.0103C29.5144 49.6556 23.9898 45.0368 21.8163 36.433C18.1936 21.8519 28.4276 13.1575 31.6879 10.8028L31.7785 10.7122C32.503 10.1688 33.4993 10.1688 33.9521 10.7122C34.3144 11.0745 34.4049 11.799 33.5898 12.7047C32.5936 13.7915 30.6012 15.9651 29.1521 21.7613C27.7936 27.1047 29.9672 32.8103 31.6879 36.2519C31.054 31.2707 33.137 27.9198 33.9521 27.3764C34.4955 27.0141 34.8578 27.1047 35.1295 27.2858C35.6729 27.6481 35.7634 28.4632 35.5823 30.0028C35.3106 31.9953 36.9408 35.2556 40.7446 40.1462C45.3634 46.033 45.1823 54.0028 45.1823 54.3651V54.7273L44.82 54.8179C44.5483 54.9085 44.1861 54.999 43.6427 54.999C41.5596 54.9085 37.8464 54.0934 33.8615 52.0103Z"
              fill="#231F20"/>
        <path fill-rule="evenodd" clip-rule="evenodd"
              d="M56.7744 11.5283C56.7744 11.5283 56.865 11.5283 56.9555 11.5283C57.1367 11.5283 57.3178 11.6189 57.5895 11.8L57.68 11.8906C60.8499 14.1547 70.5404 22.3962 67.0084 36.3434C64.9253 44.5849 59.7631 49.0227 55.597 51.2868C51.1593 53.7321 46.9933 54.2755 45.6348 54.0944C45.6348 52.3736 45.997 45.8528 49.8914 40.9623C54.0574 35.7095 55.6876 32.4491 55.3253 30.0038C55.2348 29.0076 55.2348 28.5547 55.3253 28.3736C55.3253 28.3736 55.3253 28.3736 55.4159 28.3736C55.8687 28.6453 58.8574 32.9925 56.4121 39.6038L54.9631 43.2264L57.2272 40.0566C57.4989 39.6944 64.0197 30.3661 61.7555 21.5812C60.2159 15.6038 58.0423 13.1585 57.0461 12.0717C56.7744 11.7095 56.7744 11.5283 56.7744 11.5283Z"
              fill="url(#paint2_linear_9052_31237)"/>
    </g>
    <path d="M89.688 17.112C89.688 18.04 89.368 18.8133 88.728 19.432C88.0987 20.04 87.1333 20.344 85.832 20.344H83.688V25H82.232V13.848H85.832C87.0907 13.848 88.0453 14.152 88.696 14.76C89.3573 15.368 89.688 16.152 89.688 17.112ZM85.832 19.144C86.6427 19.144 87.24 18.968 87.624 18.616C88.008 18.264 88.2 17.7627 88.2 17.112C88.2 15.736 87.4107 15.048 85.832 15.048H83.688V19.144H85.832ZM92.9536 17.656C93.2096 17.1547 93.5723 16.7653 94.0416 16.488C94.5216 16.2107 95.103 16.072 95.7856 16.072V17.576H95.4016C93.7696 17.576 92.9536 18.4613 92.9536 20.232V25H91.4976V16.232H92.9536V17.656ZM96.9224 20.584C96.9224 19.688 97.1037 18.904 97.4664 18.232C97.829 17.5493 98.325 17.0213 98.9544 16.648C99.5944 16.2747 100.304 16.088 101.082 16.088C101.85 16.088 102.517 16.2533 103.082 16.584C103.648 16.9147 104.069 17.3307 104.346 17.832V16.232H105.818V25H104.346V23.368C104.058 23.88 103.626 24.3067 103.05 24.648C102.485 24.9787 101.824 25.144 101.066 25.144C100.288 25.144 99.5837 24.952 98.9544 24.568C98.325 24.184 97.829 23.6453 97.4664 22.952C97.1037 22.2587 96.9224 21.4693 96.9224 20.584ZM104.346 20.6C104.346 19.9387 104.213 19.3627 103.946 18.872C103.68 18.3813 103.317 18.008 102.858 17.752C102.41 17.4853 101.914 17.352 101.37 17.352C100.826 17.352 100.33 17.48 99.8824 17.736C99.4344 17.992 99.077 18.3653 98.8104 18.856C98.5437 19.3467 98.4104 19.9227 98.4104 20.584C98.4104 21.256 98.5437 21.8427 98.8104 22.344C99.077 22.8347 99.4344 23.2133 99.8824 23.48C100.33 23.736 100.826 23.864 101.37 23.864C101.914 23.864 102.41 23.736 102.858 23.48C103.317 23.2133 103.68 22.8347 103.946 22.344C104.213 21.8427 104.346 21.2613 104.346 20.6ZM107.735 20.584C107.735 19.688 107.916 18.904 108.279 18.232C108.642 17.5493 109.138 17.0213 109.767 16.648C110.407 16.2747 111.122 16.088 111.911 16.088C112.594 16.088 113.228 16.248 113.815 16.568C114.402 16.8773 114.85 17.288 115.159 17.8V13.16H116.631V25H115.159V23.352C114.871 23.8747 114.444 24.3067 113.879 24.648C113.314 24.9787 112.652 25.144 111.895 25.144C111.116 25.144 110.407 24.952 109.767 24.568C109.138 24.184 108.642 23.6453 108.279 22.952C107.916 22.2587 107.735 21.4693 107.735 20.584ZM115.159 20.6C115.159 19.9387 115.026 19.3627 114.759 18.872C114.492 18.3813 114.13 18.008 113.671 17.752C113.223 17.4853 112.727 17.352 112.183 17.352C111.639 17.352 111.143 17.48 110.695 17.736C110.247 17.992 109.89 18.3653 109.623 18.856C109.356 19.3467 109.223 19.9227 109.223 20.584C109.223 21.256 109.356 21.8427 109.623 22.344C109.89 22.8347 110.247 23.2133 110.695 23.48C111.143 23.736 111.639 23.864 112.183 23.864C112.727 23.864 113.223 23.736 113.671 23.48C114.13 23.2133 114.492 22.8347 114.759 22.344C115.026 21.8427 115.159 21.2613 115.159 20.6ZM123.443 16.072C124.105 16.072 124.702 16.216 125.235 16.504C125.769 16.7813 126.185 17.2027 126.483 17.768C126.793 18.3333 126.947 19.0213 126.947 19.832V25H125.507V20.04C125.507 19.1653 125.289 18.4987 124.851 18.04C124.414 17.5707 123.817 17.336 123.059 17.336C122.291 17.336 121.678 17.576 121.219 18.056C120.771 18.536 120.547 19.2347 120.547 20.152V25H119.091V13.16H120.547V17.48C120.835 17.032 121.23 16.6853 121.731 16.44C122.243 16.1947 122.814 16.072 123.443 16.072ZM128.782 20.584C128.782 19.688 128.963 18.904 129.326 18.232C129.688 17.5493 130.184 17.0213 130.814 16.648C131.454 16.2747 132.163 16.088 132.942 16.088C133.71 16.088 134.376 16.2533 134.942 16.584C135.507 16.9147 135.928 17.3307 136.206 17.832V16.232H137.678V25H136.206V23.368C135.918 23.88 135.486 24.3067 134.91 24.648C134.344 24.9787 133.683 25.144 132.926 25.144C132.147 25.144 131.443 24.952 130.814 24.568C130.184 24.184 129.688 23.6453 129.326 22.952C128.963 22.2587 128.782 21.4693 128.782 20.584ZM136.206 20.6C136.206 19.9387 136.072 19.3627 135.806 18.872C135.539 18.3813 135.176 18.008 134.718 17.752C134.27 17.4853 133.774 17.352 133.23 17.352C132.686 17.352 132.19 17.48 131.742 17.736C131.294 17.992 130.936 18.3653 130.67 18.856C130.403 19.3467 130.27 19.9227 130.27 20.584C130.27 21.256 130.403 21.8427 130.67 22.344C130.936 22.8347 131.294 23.2133 131.742 23.48C132.19 23.736 132.686 23.864 133.23 23.864C133.774 23.864 134.27 23.736 134.718 23.48C135.176 23.2133 135.539 22.8347 135.806 22.344C136.072 21.8427 136.206 21.2613 136.206 20.6ZM144.41 16.072C145.477 16.072 146.341 16.3973 147.002 17.048C147.664 17.688 147.994 18.616 147.994 19.832V25H146.554V20.04C146.554 19.1653 146.336 18.4987 145.898 18.04C145.461 17.5707 144.864 17.336 144.106 17.336C143.338 17.336 142.725 17.576 142.266 18.056C141.818 18.536 141.594 19.2347 141.594 20.152V25H140.138V16.232H141.594V17.48C141.882 17.032 142.272 16.6853 142.762 16.44C143.264 16.1947 143.813 16.072 144.41 16.072ZM165.95 13.928V25H164.494V16.744L160.814 25H159.79L156.094 16.728V25H154.638V13.928H156.206L160.302 23.08L164.398 13.928H165.95ZM167.876 20.584C167.876 19.688 168.057 18.904 168.42 18.232C168.782 17.5493 169.278 17.0213 169.908 16.648C170.548 16.2747 171.257 16.088 172.036 16.088C172.804 16.088 173.47 16.2533 174.036 16.584C174.601 16.9147 175.022 17.3307 175.3 17.832V16.232H176.772V25H175.3V23.368C175.012 23.88 174.58 24.3067 174.004 24.648C173.438 24.9787 172.777 25.144 172.02 25.144C171.241 25.144 170.537 24.952 169.908 24.568C169.278 24.184 168.782 23.6453 168.42 22.952C168.057 22.2587 167.876 21.4693 167.876 20.584ZM175.3 20.6C175.3 19.9387 175.166 19.3627 174.9 18.872C174.633 18.3813 174.27 18.008 173.812 17.752C173.364 17.4853 172.868 17.352 172.324 17.352C171.78 17.352 171.284 17.48 170.836 17.736C170.388 17.992 170.03 18.3653 169.764 18.856C169.497 19.3467 169.364 19.9227 169.364 20.584C169.364 21.256 169.497 21.8427 169.764 22.344C170.03 22.8347 170.388 23.2133 170.836 23.48C171.284 23.736 171.78 23.864 172.324 23.864C172.868 23.864 173.364 23.736 173.812 23.48C174.27 23.2133 174.633 22.8347 174.9 22.344C175.166 21.8427 175.3 21.2613 175.3 20.6ZM183.504 16.072C184.571 16.072 185.435 16.3973 186.096 17.048C186.757 17.688 187.088 18.616 187.088 19.832V25H185.648V20.04C185.648 19.1653 185.429 18.4987 184.992 18.04C184.555 17.5707 183.957 17.336 183.2 17.336C182.432 17.336 181.819 17.576 181.36 18.056C180.912 18.536 180.688 19.2347 180.688 20.152V25H179.232V16.232H180.688V17.48C180.976 17.032 181.365 16.6853 181.856 16.44C182.357 16.1947 182.907 16.072 183.504 16.072ZM191.242 17.432V22.6C191.242 23.0267 191.333 23.3307 191.514 23.512C191.696 23.6827 192.01 23.768 192.458 23.768H193.53V25H192.218C191.408 25 190.8 24.8133 190.394 24.44C189.989 24.0667 189.786 23.4533 189.786 22.6V17.432H188.65V16.232H189.786V14.024H191.242V16.232H193.53V17.432H191.242ZM196.751 17.656C197.007 17.1547 197.369 16.7653 197.839 16.488C198.319 16.2107 198.9 16.072 199.583 16.072V17.576H199.199C197.567 17.576 196.751 18.4613 196.751 20.232V25H195.295V16.232H196.751V17.656ZM202.015 14.808C201.738 14.808 201.503 14.712 201.311 14.52C201.119 14.328 201.023 14.0933 201.023 13.816C201.023 13.5387 201.119 13.304 201.311 13.112C201.503 12.92 201.738 12.824 202.015 12.824C202.282 12.824 202.506 12.92 202.687 13.112C202.879 13.304 202.975 13.5387 202.975 13.816C202.975 14.0933 202.879 14.328 202.687 14.52C202.506 14.712 202.282 14.808 202.015 14.808ZM202.719 16.232V25H201.263V16.232H202.719ZM215.77 13.848V15.032H210.922V18.792H214.858V19.976H210.922V25H209.466V13.848H215.77ZM216.985 20.584C216.985 19.688 217.166 18.904 217.529 18.232C217.892 17.5493 218.388 17.0213 219.017 16.648C219.657 16.2747 220.366 16.088 221.145 16.088C221.913 16.088 222.58 16.2533 223.145 16.584C223.71 16.9147 224.132 17.3307 224.409 17.832V16.232H225.881V25H224.409V23.368C224.121 23.88 223.689 24.3067 223.113 24.648C222.548 24.9787 221.886 25.144 221.129 25.144C220.35 25.144 219.646 24.952 219.017 24.568C218.388 24.184 217.892 23.6453 217.529 22.952C217.166 22.2587 216.985 21.4693 216.985 20.584ZM224.409 20.6C224.409 19.9387 224.276 19.3627 224.009 18.872C223.742 18.3813 223.38 18.008 222.921 17.752C222.473 17.4853 221.977 17.352 221.433 17.352C220.889 17.352 220.393 17.48 219.945 17.736C219.497 17.992 219.14 18.3653 218.873 18.856C218.606 19.3467 218.473 19.9227 218.473 20.584C218.473 21.256 218.606 21.8427 218.873 22.344C219.14 22.8347 219.497 23.2133 219.945 23.48C220.393 23.736 220.889 23.864 221.433 23.864C221.977 23.864 222.473 23.736 222.921 23.48C223.38 23.2133 223.742 22.8347 224.009 22.344C224.276 21.8427 224.409 21.2613 224.409 20.6ZM231.445 25.144C230.773 25.144 230.171 25.032 229.637 24.808C229.104 24.5733 228.683 24.2533 228.373 23.848C228.064 23.432 227.893 22.9573 227.861 22.424H229.365C229.408 22.8613 229.611 23.2187 229.973 23.496C230.347 23.7733 230.832 23.912 231.429 23.912C231.984 23.912 232.421 23.7893 232.741 23.544C233.061 23.2987 233.221 22.9893 233.221 22.616C233.221 22.232 233.051 21.9493 232.709 21.768C232.368 21.576 231.84 21.3893 231.125 21.208C230.475 21.0373 229.941 20.8667 229.525 20.696C229.12 20.5147 228.768 20.2533 228.469 19.912C228.181 19.56 228.037 19.1013 228.037 18.536C228.037 18.088 228.171 17.6773 228.437 17.304C228.704 16.9307 229.083 16.6373 229.573 16.424C230.064 16.2 230.624 16.088 231.253 16.088C232.224 16.088 233.008 16.3333 233.605 16.824C234.203 17.3147 234.523 17.9867 234.565 18.84H233.109C233.077 18.3813 232.891 18.0133 232.549 17.736C232.219 17.4587 231.771 17.32 231.205 17.32C230.683 17.32 230.267 17.432 229.957 17.656C229.648 17.88 229.493 18.1733 229.493 18.536C229.493 18.824 229.584 19.064 229.765 19.256C229.957 19.4373 230.192 19.5867 230.469 19.704C230.757 19.8107 231.152 19.9333 231.653 20.072C232.283 20.2427 232.795 20.4133 233.189 20.584C233.584 20.744 233.92 20.9893 234.197 21.32C234.485 21.6507 234.635 22.0827 234.645 22.616C234.645 23.096 234.512 23.528 234.245 23.912C233.979 24.296 233.6 24.6 233.109 24.824C232.629 25.0373 232.075 25.144 231.445 25.144ZM236.157 20.584C236.157 19.688 236.338 18.904 236.701 18.232C237.063 17.5493 237.559 17.0213 238.189 16.648C238.829 16.2747 239.538 16.088 240.317 16.088C241.085 16.088 241.751 16.2533 242.317 16.584C242.882 16.9147 243.303 17.3307 243.581 17.832V16.232H245.053V25H243.581V23.368C243.293 23.88 242.861 24.3067 242.285 24.648C241.719 24.9787 241.058 25.144 240.301 25.144C239.522 25.144 238.818 24.952 238.189 24.568C237.559 24.184 237.063 23.6453 236.701 22.952C236.338 22.2587 236.157 21.4693 236.157 20.584ZM243.581 20.6C243.581 19.9387 243.447 19.3627 243.181 18.872C242.914 18.3813 242.551 18.008 242.093 17.752C241.645 17.4853 241.149 17.352 240.605 17.352C240.061 17.352 239.565 17.48 239.117 17.736C238.669 17.992 238.311 18.3653 238.045 18.856C237.778 19.3467 237.645 19.9227 237.645 20.584C237.645 21.256 237.778 21.8427 238.045 22.344C238.311 22.8347 238.669 23.2133 239.117 23.48C239.565 23.736 240.061 23.864 240.605 23.864C241.149 23.864 241.645 23.736 242.093 23.48C242.551 23.2133 242.914 22.8347 243.181 22.344C243.447 21.8427 243.581 21.2613 243.581 20.6ZM248.969 13.16V25H247.513V13.16H248.969ZM87.816 43.256C88.2213 43.32 88.5893 43.4853 88.92 43.752C89.2613 44.0187 89.528 44.3493 89.72 44.744C89.9227 45.1387 90.024 45.56 90.024 46.008C90.024 46.5733 89.88 47.0853 89.592 47.544C89.304 47.992 88.8827 48.3493 88.328 48.616C87.784 48.872 87.1387 49 86.392 49H82.232V37.848H86.232C86.9893 37.848 87.6347 37.976 88.168 38.232C88.7013 38.4773 89.1013 38.8133 89.368 39.24C89.6347 39.6667 89.768 40.1467 89.768 40.68C89.768 41.3413 89.5867 41.8907 89.224 42.328C88.872 42.7547 88.4027 43.064 87.816 43.256ZM83.688 42.664H86.136C86.8187 42.664 87.3467 42.504 87.72 42.184C88.0933 41.864 88.28 41.4213 88.28 40.856C88.28 40.2907 88.0933 39.848 87.72 39.528C87.3467 39.208 86.808 39.048 86.104 39.048H83.688V42.664ZM86.264 47.8C86.9893 47.8 87.5547 47.6293 87.96 47.288C88.3653 46.9467 88.568 46.472 88.568 45.864C88.568 45.2453 88.3547 44.76 87.928 44.408C87.5013 44.0453 86.9307 43.864 86.216 43.864H83.688V47.8H86.264ZM92.7965 38.808C92.5192 38.808 92.2845 38.712 92.0925 38.52C91.9005 38.328 91.8045 38.0933 91.8045 37.816C91.8045 37.5387 91.9005 37.304 92.0925 37.112C92.2845 36.92 92.5192 36.824 92.7965 36.824C93.0632 36.824 93.2872 36.92 93.4685 37.112C93.6605 37.304 93.7565 37.5387 93.7565 37.816C93.7565 38.0933 93.6605 38.328 93.4685 38.52C93.2872 38.712 93.0632 38.808 92.7965 38.808ZM93.5005 40.232V49H92.0445V40.232H93.5005ZM106.526 40.072C107.209 40.072 107.817 40.216 108.35 40.504C108.883 40.7813 109.305 41.2027 109.614 41.768C109.923 42.3333 110.078 43.0213 110.078 43.832V49H108.638V44.04C108.638 43.1653 108.419 42.4987 107.982 42.04C107.555 41.5707 106.974 41.336 106.238 41.336C105.481 41.336 104.878 41.5813 104.43 42.072C103.982 42.552 103.758 43.2507 103.758 44.168V49H102.318V44.04C102.318 43.1653 102.099 42.4987 101.662 42.04C101.235 41.5707 100.654 41.336 99.918 41.336C99.1607 41.336 98.558 41.5813 98.11 42.072C97.662 42.552 97.438 43.2507 97.438 44.168V49H95.982V40.232H97.438V41.496C97.726 41.0373 98.11 40.6853 98.59 40.44C99.0807 40.1947 99.6193 40.072 100.206 40.072C100.942 40.072 101.593 40.2373 102.158 40.568C102.723 40.8987 103.145 41.384 103.422 42.024C103.667 41.4053 104.073 40.9253 104.638 40.584C105.203 40.2427 105.833 40.072 106.526 40.072ZM111.922 44.584C111.922 43.688 112.104 42.904 112.466 42.232C112.829 41.5493 113.325 41.0213 113.954 40.648C114.594 40.2747 115.304 40.088 116.082 40.088C116.85 40.088 117.517 40.2533 118.082 40.584C118.648 40.9147 119.069 41.3307 119.346 41.832V40.232H120.818V49H119.346V47.368C119.058 47.88 118.626 48.3067 118.05 48.648C117.485 48.9787 116.824 49.144 116.066 49.144C115.288 49.144 114.584 48.952 113.954 48.568C113.325 48.184 112.829 47.6453 112.466 46.952C112.104 46.2587 111.922 45.4693 111.922 44.584ZM119.346 44.6C119.346 43.9387 119.213 43.3627 118.946 42.872C118.68 42.3813 118.317 42.008 117.858 41.752C117.41 41.4853 116.914 41.352 116.37 41.352C115.826 41.352 115.33 41.48 114.882 41.736C114.434 41.992 114.077 42.3653 113.81 42.856C113.544 43.3467 113.41 43.9227 113.41 44.584C113.41 45.256 113.544 45.8427 113.81 46.344C114.077 46.8347 114.434 47.2133 114.882 47.48C115.33 47.736 115.826 47.864 116.37 47.864C116.914 47.864 117.41 47.736 117.858 47.48C118.317 47.2133 118.68 46.8347 118.946 46.344C119.213 45.8427 119.346 45.2613 119.346 44.6ZM135.352 37.848L131.721 44.792V49H130.265V44.792L126.617 37.848H128.233L130.985 43.496L133.737 37.848H135.352ZM140.712 49.144C139.891 49.144 139.144 48.9573 138.472 48.584C137.811 48.2107 137.288 47.6827 136.904 47C136.531 46.3067 136.344 45.5067 136.344 44.6C136.344 43.704 136.536 42.9147 136.92 42.232C137.315 41.5387 137.848 41.0107 138.52 40.648C139.192 40.2747 139.944 40.088 140.776 40.088C141.608 40.088 142.36 40.2747 143.032 40.648C143.704 41.0107 144.232 41.5333 144.616 42.216C145.011 42.8987 145.208 43.6933 145.208 44.6C145.208 45.5067 145.006 46.3067 144.6 47C144.206 47.6827 143.667 48.2107 142.984 48.584C142.302 48.9573 141.544 49.144 140.712 49.144ZM140.712 47.864C141.235 47.864 141.726 47.7413 142.184 47.496C142.643 47.2507 143.011 46.8827 143.288 46.392C143.576 45.9013 143.72 45.304 143.72 44.6C143.72 43.896 143.582 43.2987 143.304 42.808C143.027 42.3173 142.664 41.9547 142.216 41.72C141.768 41.4747 141.283 41.352 140.76 41.352C140.227 41.352 139.736 41.4747 139.288 41.72C138.851 41.9547 138.499 42.3173 138.232 42.808C137.966 43.2987 137.832 43.896 137.832 44.6C137.832 45.3147 137.96 45.9173 138.216 46.408C138.483 46.8987 138.835 47.2667 139.272 47.512C139.71 47.7467 140.19 47.864 140.712 47.864ZM147.907 38.808C147.629 38.808 147.395 38.712 147.203 38.52C147.021 38.328 146.931 38.0933 146.931 37.816C146.931 37.5387 147.021 37.304 147.203 37.112C147.395 36.92 147.629 36.824 147.907 36.824C148.184 36.824 148.413 36.92 148.595 37.112C148.787 37.304 148.883 37.5387 148.883 37.816C148.883 38.0933 148.787 38.328 148.595 38.52C148.413 38.712 148.184 38.808 147.907 38.808ZM148.627 50.904C148.627 51.6827 148.429 52.2533 148.035 52.616C147.64 52.9787 147.064 53.16 146.307 53.16H145.459V51.928H146.067C146.472 51.928 146.755 51.848 146.915 51.688C147.085 51.528 147.171 51.256 147.171 50.872V40.232H148.627V50.904ZM155.363 40.072C156.43 40.072 157.294 40.3973 157.955 41.048C158.617 41.688 158.947 42.616 158.947 43.832V49H157.507V44.04C157.507 43.1653 157.289 42.4987 156.851 42.04C156.414 41.5707 155.817 41.336 155.059 41.336C154.291 41.336 153.678 41.576 153.219 42.056C152.771 42.536 152.547 43.2347 152.547 44.152V49H151.091V40.232H152.547V41.48C152.835 41.032 153.225 40.6853 153.715 40.44C154.217 40.1947 154.766 40.072 155.363 40.072ZM160.782 44.584C160.782 43.688 160.963 42.904 161.326 42.232C161.688 41.5493 162.184 41.0213 162.814 40.648C163.454 40.2747 164.163 40.088 164.942 40.088C165.71 40.088 166.376 40.2533 166.942 40.584C167.507 40.9147 167.928 41.3307 168.206 41.832V40.232H169.678V49H168.206V47.368C167.918 47.88 167.486 48.3067 166.91 48.648C166.344 48.9787 165.683 49.144 164.926 49.144C164.147 49.144 163.443 48.952 162.814 48.568C162.184 48.184 161.688 47.6453 161.326 46.952C160.963 46.2587 160.782 45.4693 160.782 44.584ZM168.206 44.6C168.206 43.9387 168.072 43.3627 167.806 42.872C167.539 42.3813 167.176 42.008 166.718 41.752C166.27 41.4853 165.774 41.352 165.23 41.352C164.686 41.352 164.19 41.48 163.742 41.736C163.294 41.992 162.936 42.3653 162.67 42.856C162.403 43.3467 162.27 43.9227 162.27 44.584C162.27 45.256 162.403 45.8427 162.67 46.344C162.936 46.8347 163.294 47.2133 163.742 47.48C164.19 47.736 164.686 47.864 165.23 47.864C165.774 47.864 166.27 47.736 166.718 47.48C167.176 47.2133 167.539 46.8347 167.806 46.344C168.072 45.8427 168.206 45.2613 168.206 44.6Z"
          fill="black"/>
    <defs>
        <linearGradient id="paint0_linear_9052_31237" x1="44.7254" y1="10.5306" x2="44.1924" y2="55.0396"
                        gradientUnits="userSpaceOnUse">
            <stop stop-color="white"/>
            <stop offset="0.4959" stop-color="#D0F382"/>
            <stop offset="1" stop-color="#65AE57"/>
        </linearGradient>
        <linearGradient id="paint1_linear_9052_31237" x1="33.2091" y1="11.4892" x2="33.2091" y2="53.958"
                        gradientUnits="userSpaceOnUse">
            <stop stop-color="#FAD961"/>
            <stop offset="1" stop-color="#F76B1C"/>
        </linearGradient>
        <linearGradient id="paint2_linear_9052_31237" x1="56.6496" y1="11.4939" x2="56.6496" y2="54.0329"
                        gradientUnits="userSpaceOnUse">
            <stop stop-color="#FAD961"/>
            <stop offset="1" stop-color="#F76B1C"/>
        </linearGradient>
        <clipPath id="clip0_9052_31237">
            <rect width="48" height="48" fill="white" transform="translate(21 7)"/>
        </clipPath>
    </defs>
</svg>
