<svg width="223" height="61" viewBox="0 0 223 61" fill="none" xmlns="http://www.w3.org/2000/svg">
<g clip-path="url(#clip0_5502_58479)">
<g clip-path="url(#clip1_5502_58479)">
<path d="M55.9453 0.832031C55.779 26.2753 41.1267 30.9763 33.5039 31.7072C33.7312 31.2476 33.964 30.7881 34.2024 30.3229C41.9582 28.9829 53.9828 23.335 54.6259 1.17534C55.0583 1.05905 55.4962 0.942774 55.9453 0.832031Z" fill="#E4AC53"/>
<path d="M54.6243 1.17497C53.9812 23.3347 41.9566 28.9881 34.2008 30.3226C36.6623 25.544 39.5894 20.7045 42.9268 15.8927C43.5422 15.0068 44.1797 14.1098 44.8782 13.1518C47.0902 10.123 48.6092 8.31237 48.6258 8.30129L52.5453 3.6833L47.8996 6.52387L47.3452 6.86717C37.2056 13.6889 30.5474 23.6392 27.7644 28.3624C27.5815 27.6094 27.4207 26.7511 27.3431 25.8098C26.7278 18.9603 30.0263 7.7808 54.6298 1.16943L54.6243 1.17497Z" fill="#F6C449"/>
<path d="M21.012 34.21C15.8008 35.5611 7.72901 34.9631 0.394531 23.1523C0.704985 23.0582 1.01544 22.9696 1.32035 22.8921C7.69575 32.2886 14.5036 33.6286 19.4376 32.8534C19.9698 33.2798 20.4909 33.7338 21.012 34.21Z" fill="#E4AC53"/>
<path d="M11.6856 26.6351L8.14866 26.8123L12.0681 28.479C14.585 29.448 17.0576 30.9098 19.4414 32.8534C14.5074 33.6286 7.69407 32.2886 1.32422 22.892C18.0777 18.274 23.7213 23.8943 25.6228 28.0139C25.9776 28.7836 26.2049 29.4979 26.3435 30.0848C26.2215 30.0184 26.0996 29.9519 25.9776 29.8855C23.2888 28.4403 20.3672 27.4546 17.2904 26.9508C15.4499 26.6462 13.9808 26.5798 13.0827 26.5798C12.617 26.5798 12.362 26.5964 12.362 26.5964L11.6967 26.6296L11.6856 26.6351Z" fill="#F6C449"/>
<path fill-rule="evenodd" clip-rule="evenodd" d="M47.8841 7.67578C47.8841 7.67578 46.354 9.48643 44.0921 12.5817C43.4823 13.4123 42.8226 14.3314 42.124 15.3392C39.1747 19.5862 35.5546 25.3116 32.378 31.7846C30.8867 34.8189 29.4952 38.0194 28.3255 41.3029C28.3255 41.3029 26.0858 37.6152 22.1053 33.8832C19.5496 31.4745 16.2843 29.0492 12.4258 27.5653C12.4258 27.5653 14.3162 27.4379 17.1325 27.9086C19.4775 28.2962 22.4601 29.1046 25.5203 30.7436C25.864 30.9263 26.2133 31.1201 26.557 31.3305C26.7288 31.4357 26.8896 31.5354 27.0615 31.6406C27.0615 31.6406 27.4163 30.9042 28.1314 29.6694C30.604 25.3172 37.3286 14.78 47.8841 7.67578Z" fill="#408C4D"/>
<path d="M49.657 27.5986C49.657 39.9299 39.6116 49.9632 27.2655 49.9632C16.2888 49.9632 7.12482 42.0285 5.23438 31.602C6.831 32.8977 8.41099 33.8833 9.96326 34.6142C12.7407 41.436 19.4487 46.2533 27.2655 46.2533C36.7177 46.2533 44.5401 39.2156 45.7653 30.118C47.0958 29.1933 48.393 28.0914 49.6348 26.8013C49.6515 27.0615 49.657 27.3273 49.657 27.5931V27.5986Z" fill="#408C4D"/>
<path d="M35.8977 6.95611C34.5894 7.83652 33.4252 8.74461 32.3774 9.64717C30.7531 9.18205 29.0345 8.93287 27.2605 8.93287C19.8761 8.93287 13.473 13.2352 10.4405 19.4701C9.13216 19.531 7.72957 19.6639 6.23828 19.8798C9.39826 11.3305 17.6364 5.22852 27.266 5.22852C30.3262 5.22852 33.2422 5.84314 35.8977 6.95611Z" fill="#9BC361"/>
<path d="M77.3712 35.766V38.3242C77.3712 43.6731 76.2957 49.5979 67.2537 49.5979C61.527 49.5979 57.5742 47.0342 57.5742 38.9776V20.8323C57.5742 13.4624 61.466 10.5166 67.4422 10.5166C76.1294 10.5166 77.3158 16.2752 77.3158 20.8822V23.8612H69.0111V19.9685C69.0111 18.1634 68.7395 17.1833 67.4422 17.1833C66.145 17.1833 65.8345 18.0471 65.8345 19.9685V39.9355C65.8345 41.8846 66.1172 42.9034 67.3812 42.9034C68.6452 42.9034 69.0444 41.9898 69.0444 39.7639V35.7605H77.3657L77.3712 35.766Z" fill="#296333"/>
<path d="M80.4297 11.0869H88.6567V41.9621H97.4825L96.6953 49.022H80.4297V11.0869Z" fill="#296333"/>
<path d="M107.881 40.5446L107.193 49.0275H98.8164L103.501 11.0869H116.23L120.947 49.0275H112.438L111.7 40.5446H107.886H107.881ZM111.19 33.5456C110.841 29.7028 110.12 21.004 109.865 18.1966H109.522C109.427 20.3229 108.701 29.3706 108.368 33.5456H111.196H111.19Z" fill="#296333"/>
<path d="M123.617 11.0869H134.195C140.664 11.0869 143.736 14.7304 143.736 21.303V23.7172C143.736 30.5777 141.108 34.4593 133.968 34.4593H131.844V49.022H123.617V11.0869ZM131.844 27.8313H132.798C134.899 27.8313 135.448 26.7017 135.448 23.9996V20.6108C135.448 18.3683 134.755 17.3384 132.936 17.3384H131.844V27.8313Z" fill="#296333"/>
<path d="M10.5903 56.6629H9.62008C9.58682 56.4913 9.53138 56.3363 9.44822 56.2034C9.36507 56.0705 9.26528 55.9542 9.14331 55.8601C9.02135 55.7659 8.88275 55.6939 8.72753 55.6496C8.5723 55.5998 8.41153 55.5777 8.23413 55.5777C7.91813 55.5777 7.64094 55.6552 7.39701 55.8102C7.15308 55.9653 6.96459 56.1978 6.82045 56.4968C6.68186 56.7958 6.60979 57.1668 6.60979 57.5987C6.60979 58.0306 6.68186 58.4072 6.82045 58.7117C6.95905 59.0107 7.15308 59.2433 7.39701 59.3928C7.64094 59.5478 7.91813 59.6253 8.22858 59.6253C8.40044 59.6253 8.56121 59.6032 8.71644 59.5589C8.86612 59.5146 9.00472 59.4426 9.13223 59.354C9.25419 59.2654 9.35952 59.1547 9.44268 59.0218C9.52584 58.8889 9.58682 58.7394 9.62008 58.5677H10.5903C10.5459 58.8446 10.4627 59.0993 10.3352 59.3319C10.2077 59.5644 10.0414 59.7693 9.83629 59.9409C9.63117 60.1126 9.39279 60.251 9.12114 60.3507C8.84949 60.4504 8.55013 60.4947 8.22304 60.4947C7.72964 60.4947 7.29168 60.3784 6.90361 60.1514C6.51554 59.9188 6.21063 59.5921 5.98888 59.1602C5.76713 58.7283 5.65625 58.2078 5.65625 57.6043C5.65625 57.0007 5.76713 56.4802 5.98888 56.0483C6.21063 55.6164 6.51554 55.2842 6.90361 55.0572C7.29168 54.8246 7.72964 54.7139 8.2175 54.7139C8.52795 54.7139 8.81069 54.7582 9.07679 54.8468C9.34289 54.9354 9.58128 55.0627 9.79194 55.2288C10.0026 55.3949 10.1745 55.5998 10.3131 55.8434C10.4461 56.0815 10.5404 56.3584 10.5847 56.6685L10.5903 56.6629Z" fill="black"/>
<path d="M11.5563 60.4228V54.7915H13.6353C14.0677 54.7915 14.4336 54.869 14.7218 55.0185C15.0157 55.168 15.2374 55.3784 15.3816 55.6442C15.5312 55.9155 15.6033 56.2256 15.6033 56.58C15.6033 56.9344 15.5257 57.2445 15.3816 57.5103C15.2319 57.7705 15.0101 57.9754 14.7163 58.1193C14.4225 58.2633 14.0566 58.3353 13.6242 58.3353H12.1107V57.5269H13.5078C13.7683 57.5269 13.979 57.4881 14.1453 57.4161C14.3116 57.3441 14.4336 57.2334 14.5112 57.095C14.5888 56.951 14.6276 56.7793 14.6276 56.5745C14.6276 56.3696 14.5888 56.1979 14.5056 56.0484C14.428 55.8989 14.3005 55.7882 14.1342 55.7107C13.9679 55.6332 13.7517 55.5944 13.4911 55.5944H12.5099V60.4228H11.5508H11.5563ZM14.4225 57.8702L15.8195 60.4173H14.7385L13.3692 57.8702H14.4225Z" fill="black"/>
<path d="M21.5744 57.6043C21.5744 58.2078 21.4635 58.7283 21.2362 59.1602C21.0089 59.5921 20.704 59.9243 20.3159 60.1514C19.9278 60.3839 19.4899 60.4947 19.002 60.4947C18.5142 60.4947 18.0707 60.3784 17.6826 60.1514C17.2945 59.9188 16.9896 59.5866 16.7679 59.1547C16.5461 58.7228 16.4297 58.2078 16.4297 57.6043C16.4297 57.0007 16.5406 56.4802 16.7679 56.0483C16.9896 55.6164 17.3001 55.2842 17.6826 55.0572C18.0707 54.8246 18.5086 54.7139 19.002 54.7139C19.4954 54.7139 19.9334 54.8301 20.3159 55.0572C20.704 55.2897 21.0089 55.6164 21.2362 56.0483C21.4635 56.4802 21.5744 57.0007 21.5744 57.6043ZM20.6153 57.6043C20.6153 57.1668 20.5487 56.7958 20.4046 56.4968C20.2605 56.1978 20.0775 55.9653 19.8336 55.8102C19.5897 55.6552 19.3125 55.5777 19.002 55.5777C18.6916 55.5777 18.4088 55.6552 18.1704 55.8102C17.9265 55.9653 17.738 56.1923 17.5994 56.4968C17.4608 56.8014 17.3888 57.1668 17.3888 57.6043C17.3888 58.0417 17.4553 58.4127 17.5994 58.7117C17.738 59.0107 17.9265 59.2433 18.1704 59.3983C18.4144 59.5533 18.6916 59.6309 19.002 59.6309C19.3125 59.6309 19.5897 59.5533 19.8336 59.3983C20.0775 59.2433 20.266 59.0162 20.4046 58.7117C20.5432 58.4127 20.6153 58.0417 20.6153 57.6043Z" fill="black"/>
<path d="M22.5703 60.4228V54.7915H24.6492C25.0817 54.7915 25.4476 54.8746 25.7414 55.0296C26.0352 55.1902 26.2514 55.4117 26.4011 55.6885C26.5508 55.9654 26.6228 56.2865 26.6228 56.6409C26.6228 56.9953 26.5452 57.3109 26.4011 57.5933C26.2514 57.8702 26.0297 58.0917 25.7358 58.2522C25.442 58.4128 25.0761 58.4903 24.6437 58.4903H23.2522V57.693H24.5273C24.7878 57.693 25.004 57.6487 25.1704 57.5545C25.3367 57.466 25.4586 57.3386 25.5363 57.178C25.6139 57.0174 25.6527 56.8403 25.6527 56.6354C25.6527 56.4305 25.6139 56.2478 25.5363 56.0927C25.4586 55.9377 25.3367 55.8159 25.1704 55.7217C25.004 55.6332 24.7878 55.5889 24.5217 55.5889H23.5405V60.4173H22.5814L22.5703 60.4228Z" fill="black"/>
<path d="M29.5212 60.4228V54.7915H30.4803V59.6144H32.9861V60.4228H29.5156H29.5212Z" fill="black"/>
<path d="M38.6759 57.6043C38.6759 58.2078 38.565 58.7283 38.3377 59.1602C38.1104 59.5921 37.8055 59.9243 37.4175 60.1514C37.0294 60.3839 36.5914 60.4947 36.1036 60.4947C35.6157 60.4947 35.1722 60.3784 34.7842 60.1514C34.3961 59.9188 34.0912 59.5866 33.8694 59.1547C33.6477 58.7228 33.5312 58.2078 33.5312 57.6043C33.5312 57.0007 33.6421 56.4802 33.8694 56.0483C34.0912 55.6164 34.4016 55.2842 34.7842 55.0572C35.1722 54.8246 35.6102 54.7139 36.1036 54.7139C36.597 54.7139 37.0349 54.8301 37.4175 55.0572C37.8055 55.2897 38.1104 55.6164 38.3377 56.0483C38.565 56.4802 38.6759 57.0007 38.6759 57.6043ZM37.7113 57.6043C37.7113 57.1668 37.6448 56.7958 37.5006 56.4968C37.3565 56.1978 37.1735 55.9653 36.9296 55.8102C36.6857 55.6552 36.4085 55.5777 36.098 55.5777C35.7876 55.5777 35.5049 55.6552 35.2665 55.8102C35.0225 55.9653 34.834 56.1923 34.6955 56.4968C34.5569 56.8014 34.4848 57.1668 34.4848 57.6043C34.4848 58.0417 34.5513 58.4127 34.6955 58.7117C34.834 59.0107 35.0225 59.2433 35.2665 59.3983C35.5104 59.5533 35.7876 59.6309 36.098 59.6309C36.4085 59.6309 36.6857 59.5533 36.9296 59.3983C37.1735 59.2433 37.362 59.0162 37.5006 58.7117C37.6392 58.4127 37.7113 58.0417 37.7113 57.6043Z" fill="black"/>
<path d="M42.7445 56.3141C42.7168 56.0649 42.6059 55.8767 42.4063 55.7382C42.2068 55.5998 41.9518 55.5334 41.6413 55.5334C41.4195 55.5334 41.2311 55.5666 41.0758 55.633C40.9206 55.6995 40.7986 55.7936 40.7099 55.9044C40.6268 56.0206 40.5824 56.1535 40.5824 56.2975C40.5824 56.4193 40.6101 56.5245 40.6656 56.6187C40.7266 56.7072 40.8042 56.7848 40.8984 56.8457C40.9927 56.9066 41.1035 56.9564 41.2144 57.0007C41.3253 57.045 41.4473 57.0782 41.5637 57.1059L42.0959 57.2388C42.2955 57.2886 42.495 57.3496 42.6891 57.4326C42.8831 57.5157 43.0605 57.6153 43.2157 57.7427C43.371 57.87 43.4985 58.0196 43.5927 58.2023C43.687 58.385 43.7369 58.5954 43.7369 58.8446C43.7369 59.1713 43.6537 59.4592 43.4874 59.7084C43.3211 59.9576 43.0771 60.1514 42.7611 60.2953C42.4452 60.4338 42.0626 60.5057 41.6136 60.5057C41.1645 60.5057 40.8097 60.4393 40.4882 60.3009C40.1722 60.168 39.9227 59.9686 39.7453 59.7139C39.5679 59.4592 39.4681 59.1491 39.457 58.7892H40.405C40.4217 58.9886 40.4826 59.1547 40.5935 59.2876C40.7044 59.4205 40.8485 59.5146 41.0204 59.581C41.1978 59.6475 41.3918 59.6807 41.608 59.6807C41.8353 59.6807 42.0349 59.6475 42.2123 59.5755C42.3897 59.5035 42.5283 59.4038 42.6281 59.282C42.7279 59.1547 42.7778 59.0107 42.7778 58.8446C42.7778 58.6895 42.7334 58.5622 42.6447 58.4625C42.556 58.3629 42.4341 58.2798 42.2788 58.2134C42.1236 58.1469 41.9462 58.086 41.7411 58.0362L41.0869 57.8645C40.6268 57.7427 40.2664 57.5655 40.0003 57.3219C39.7342 57.0782 39.6012 56.7626 39.6012 56.3584C39.6012 56.0317 39.6899 55.7438 39.8673 55.4946C40.0447 55.2454 40.2886 55.0572 40.5991 54.9187C40.9095 54.7803 41.2532 54.7139 41.6413 54.7139C42.0294 54.7139 42.3842 54.7803 42.6835 54.9187C42.9829 55.0572 43.2157 55.2454 43.3876 55.4835C43.5595 55.7272 43.6482 55.9985 43.6537 56.3141H42.7334H42.7445Z" fill="black"/>
<path d="M47.7601 56.3141C47.7324 56.0649 47.6215 55.8767 47.422 55.7382C47.2224 55.5998 46.9674 55.5334 46.6569 55.5334C46.4352 55.5334 46.2467 55.5666 46.0915 55.633C45.9362 55.6995 45.8143 55.7936 45.7256 55.9044C45.6424 56.0206 45.5981 56.1535 45.5981 56.2975C45.5981 56.4193 45.6258 56.5245 45.6812 56.6187C45.7422 56.7072 45.8198 56.7848 45.914 56.8457C46.0083 56.9066 46.1192 56.9564 46.23 57.0007C46.3409 57.045 46.4629 57.0782 46.5793 57.1059L47.1115 57.2388C47.3111 57.2886 47.5107 57.3496 47.7047 57.4326C47.8987 57.5157 48.0761 57.6153 48.2314 57.7427C48.3866 57.87 48.5141 58.0196 48.6083 58.2023C48.7026 58.385 48.7525 58.5954 48.7525 58.8446C48.7525 59.1713 48.6693 59.4592 48.503 59.7084C48.3367 59.9576 48.0928 60.1514 47.7768 60.2953C47.4608 60.4338 47.0783 60.5057 46.6292 60.5057C46.1802 60.5057 45.8253 60.4393 45.5038 60.3009C45.1878 60.168 44.9383 59.9686 44.7609 59.7139C44.5835 59.4592 44.4837 59.1491 44.4727 58.7892H45.4206C45.4373 58.9886 45.4983 59.1547 45.6091 59.2876C45.72 59.4205 45.8642 59.5146 46.036 59.581C46.2134 59.6475 46.4074 59.6807 46.6237 59.6807C46.851 59.6807 47.0505 59.6475 47.2279 59.5755C47.4053 59.5035 47.5439 59.4038 47.6437 59.282C47.7435 59.1547 47.7934 59.0107 47.7934 58.8446C47.7934 58.6895 47.7491 58.5622 47.6604 58.4625C47.5717 58.3629 47.4497 58.2798 47.2945 58.2134C47.1392 58.1469 46.9618 58.086 46.7567 58.0362L46.1025 57.8645C45.6424 57.7427 45.2821 57.5655 45.0159 57.3219C44.7498 57.0782 44.6168 56.7626 44.6168 56.3584C44.6168 56.0317 44.7055 55.7438 44.8829 55.4946C45.0603 55.2454 45.3042 55.0572 45.6147 54.9187C45.9251 54.7803 46.2689 54.7139 46.6569 54.7139C47.045 54.7139 47.3998 54.7803 47.6992 54.9187C47.9985 55.0572 48.2314 55.2454 48.4032 55.4835C48.5751 55.7272 48.6638 55.9985 48.6693 56.3141H47.7491H47.7601Z" fill="black"/>
<path d="M52.3147 60.4228H51.2891L53.2904 54.7915H54.4546L56.4559 60.4228H55.4303L53.8947 55.8989H53.8503L52.3147 60.4228ZM52.3923 58.2135H55.3471V58.9997H52.3923V58.2135Z" fill="black"/>
<path d="M60.2172 56.3141C60.1895 56.0649 60.0786 55.8767 59.879 55.7382C59.6794 55.5998 59.4244 55.5334 59.114 55.5334C58.8922 55.5334 58.7037 55.5666 58.5485 55.633C58.3933 55.6995 58.2713 55.7936 58.1826 55.9044C58.0994 56.0206 58.0551 56.1535 58.0551 56.2975C58.0551 56.4193 58.0828 56.5245 58.1382 56.6187C58.1992 56.7072 58.2768 56.7848 58.3711 56.8457C58.4653 56.9066 58.5762 56.9564 58.6871 57.0007C58.798 57.045 58.9199 57.0782 59.0363 57.1059L59.5685 57.2388C59.7681 57.2886 59.9677 57.3496 60.1617 57.4326C60.3558 57.5157 60.5332 57.6153 60.6884 57.7427C60.8436 57.87 60.9711 58.0196 61.0654 58.2023C61.1596 58.385 61.2095 58.5954 61.2095 58.8446C61.2095 59.1713 61.1264 59.4592 60.96 59.7084C60.7937 59.9576 60.5498 60.1514 60.2338 60.2953C59.9178 60.4338 59.5353 60.5057 59.0862 60.5057C58.6372 60.5057 58.2824 60.4393 57.9608 60.3009C57.6448 60.168 57.3954 59.9686 57.218 59.7139C57.0406 59.4592 56.9408 59.1491 56.9297 58.7892H57.8777C57.8943 58.9886 57.9553 59.1547 58.0662 59.2876C58.177 59.4205 58.3212 59.5146 58.493 59.581C58.6704 59.6475 58.8645 59.6807 59.0807 59.6807C59.308 59.6807 59.5076 59.6475 59.685 59.5755C59.8624 59.5035 60.001 59.4038 60.1008 59.282C60.2005 59.1547 60.2504 59.0107 60.2504 58.8446C60.2504 58.6895 60.2061 58.5622 60.1174 58.4625C60.0287 58.3629 59.9067 58.2798 59.7515 58.2134C59.5963 58.1469 59.4189 58.086 59.2137 58.0362L58.5596 57.8645C58.0994 57.7427 57.7391 57.5655 57.473 57.3219C57.2069 57.0782 57.0738 56.7626 57.0738 56.3584C57.0738 56.0317 57.1625 55.7438 57.3399 55.4946C57.5173 55.2454 57.7613 55.0572 58.0717 54.9187C58.3822 54.7803 58.7259 54.7139 59.114 54.7139C59.502 54.7139 59.8568 54.7803 60.1562 54.9187C60.4556 55.0572 60.6884 55.2454 60.8603 55.4835C61.0321 55.7272 61.1208 55.9985 61.1264 56.3141H60.2061H60.2172Z" fill="black"/>
<path d="M65.2367 56.3141C65.209 56.0649 65.0981 55.8767 64.8985 55.7382C64.699 55.5998 64.4439 55.5334 64.1335 55.5334C63.9117 55.5334 63.7232 55.5666 63.568 55.633C63.4128 55.6995 63.2908 55.7936 63.2021 55.9044C63.119 56.0206 63.0746 56.1535 63.0746 56.2975C63.0746 56.4193 63.1023 56.5245 63.1578 56.6187C63.2188 56.7072 63.2964 56.7848 63.3906 56.8457C63.4849 56.9066 63.5957 56.9564 63.7066 57.0007C63.8175 57.045 63.9395 57.0782 64.0559 57.1059L64.5881 57.2388C64.7877 57.2886 64.9872 57.3496 65.1813 57.4326C65.3753 57.5157 65.5527 57.6153 65.7079 57.7427C65.8632 57.87 65.9907 58.0196 66.0849 58.2023C66.1792 58.385 66.2291 58.5954 66.2291 58.8446C66.2291 59.1713 66.1459 59.4592 65.9796 59.7084C65.8133 59.9576 65.5693 60.1514 65.2533 60.2953C64.9373 60.4338 64.5548 60.5057 64.1058 60.5057C63.6567 60.5057 63.3019 60.4393 62.9804 60.3009C62.6644 60.168 62.4149 59.9686 62.2375 59.7139C62.0601 59.4592 61.9603 59.1491 61.9492 58.7892H62.8972C62.9138 58.9886 62.9748 59.1547 63.0857 59.2876C63.1966 59.4205 63.3407 59.5146 63.5126 59.581C63.69 59.6475 63.884 59.6807 64.1002 59.6807C64.3275 59.6807 64.5271 59.6475 64.7045 59.5755C64.8819 59.5035 65.0205 59.4038 65.1203 59.282C65.2201 59.1547 65.27 59.0107 65.27 58.8446C65.27 58.6895 65.2256 58.5622 65.1369 58.4625C65.0482 58.3629 64.9263 58.2798 64.771 58.2134C64.6158 58.1469 64.4384 58.086 64.2333 58.0362L63.5791 57.8645C63.119 57.7427 62.7586 57.5655 62.4925 57.3219C62.2264 57.0782 62.0934 56.7626 62.0934 56.3584C62.0934 56.0317 62.1821 55.7438 62.3595 55.4946C62.5369 55.2454 62.7808 55.0572 63.0912 54.9187C63.4017 54.7803 63.7454 54.7139 64.1335 54.7139C64.5216 54.7139 64.8764 54.7803 65.1757 54.9187C65.4751 55.0572 65.7079 55.2454 65.8798 55.4835C66.0516 55.7272 66.1403 55.9985 66.1459 56.3141H65.2256H65.2367Z" fill="black"/>
<path d="M67.1852 60.4228V54.7915H70.8053V55.6055H68.1443V57.2002H70.6169V58.0141H68.1443V59.6199H70.8275V60.4283H67.1797L67.1852 60.4228Z" fill="black"/>
<path d="M74.9555 56.3141C74.9277 56.0649 74.8169 55.8767 74.6173 55.7382C74.4177 55.5998 74.1627 55.5334 73.8522 55.5334C73.6305 55.5334 73.442 55.5666 73.2868 55.633C73.1315 55.6995 73.0096 55.7936 72.9209 55.9044C72.8377 56.0206 72.7934 56.1535 72.7934 56.2975C72.7934 56.4193 72.8211 56.5245 72.8765 56.6187C72.9375 56.7072 73.0151 56.7848 73.1094 56.8457C73.2036 56.9066 73.3145 56.9564 73.4254 57.0007C73.5362 57.045 73.6582 57.0782 73.7746 57.1059L74.3068 57.2388C74.5064 57.2886 74.706 57.3496 74.9 57.4326C75.0941 57.5157 75.2715 57.6153 75.4267 57.7427C75.5819 57.87 75.7094 58.0196 75.8037 58.2023C75.8979 58.385 75.9478 58.5954 75.9478 58.8446C75.9478 59.1713 75.8646 59.4592 75.6983 59.7084C75.532 59.9576 75.2881 60.1514 74.9721 60.2953C74.6561 60.4338 74.2736 60.5057 73.8245 60.5057C73.3755 60.5057 73.0207 60.4393 72.6991 60.3009C72.3831 60.168 72.1337 59.9686 71.9562 59.7139C71.7788 59.4592 71.6791 59.1491 71.668 58.7892H72.616C72.6326 58.9886 72.6936 59.1547 72.8045 59.2876C72.9153 59.4205 73.0595 59.5146 73.2313 59.581C73.4087 59.6475 73.6028 59.6807 73.819 59.6807C74.0463 59.6807 74.2458 59.6475 74.4232 59.5755C74.6007 59.5035 74.7392 59.4038 74.839 59.282C74.9388 59.1547 74.9887 59.0107 74.9887 58.8446C74.9887 58.6895 74.9444 58.5622 74.8557 58.4625C74.767 58.3629 74.645 58.2798 74.4898 58.2134C74.3345 58.1469 74.1571 58.086 73.952 58.0362L73.2979 57.8645C72.8377 57.7427 72.4774 57.5655 72.2113 57.3219C71.9452 57.0782 71.8121 56.7626 71.8121 56.3584C71.8121 56.0317 71.9008 55.7438 72.0782 55.4946C72.2556 55.2454 72.4995 55.0572 72.81 54.9187C73.1204 54.7803 73.4642 54.7139 73.8522 54.7139C74.2403 54.7139 74.5951 54.7803 74.8945 54.9187C75.1938 55.0572 75.4267 55.2454 75.5985 55.4835C75.7704 55.7272 75.8591 55.9985 75.8646 56.3141H74.9444H74.9555Z" fill="black"/>
<path d="M79.9672 56.3141C79.9395 56.0649 79.8286 55.8767 79.629 55.7382C79.4294 55.5998 79.1744 55.5334 78.8639 55.5334C78.6422 55.5334 78.4537 55.5666 78.2985 55.633C78.1433 55.6995 78.0213 55.7936 77.9326 55.9044C77.8494 56.0206 77.8051 56.1535 77.8051 56.2975C77.8051 56.4193 77.8328 56.5245 77.8882 56.6187C77.9492 56.7072 78.0268 56.7848 78.1211 56.8457C78.2153 56.9066 78.3262 56.9564 78.4371 57.0007C78.548 57.045 78.6699 57.0782 78.7863 57.1059L79.3185 57.2388C79.5181 57.2886 79.7177 57.3496 79.9117 57.4326C80.1058 57.5157 80.2832 57.6153 80.4384 57.7427C80.5936 57.87 80.7211 58.0196 80.8154 58.2023C80.9096 58.385 80.9595 58.5954 80.9595 58.8446C80.9595 59.1713 80.8764 59.4592 80.71 59.7084C80.5437 59.9576 80.2998 60.1514 79.9838 60.2953C79.6678 60.4338 79.2853 60.5057 78.8362 60.5057C78.3872 60.5057 78.0324 60.4393 77.7108 60.3009C77.3948 60.168 77.1454 59.9686 76.968 59.7139C76.7906 59.4592 76.6908 59.1491 76.6797 58.7892H77.6277C77.6443 58.9886 77.7053 59.1547 77.8162 59.2876C77.927 59.4205 78.0712 59.5146 78.243 59.581C78.4204 59.6475 78.6145 59.6807 78.8307 59.6807C79.058 59.6807 79.2576 59.6475 79.435 59.5755C79.6124 59.5035 79.751 59.4038 79.8508 59.282C79.9505 59.1547 80.0004 59.0107 80.0004 58.8446C80.0004 58.6895 79.9561 58.5622 79.8674 58.4625C79.7787 58.3629 79.6567 58.2798 79.5015 58.2134C79.3463 58.1469 79.1689 58.086 78.9637 58.0362L78.3096 57.8645C77.8494 57.7427 77.4891 57.5655 77.223 57.3219C76.9569 57.0782 76.8238 56.7626 76.8238 56.3584C76.8238 56.0317 76.9125 55.7438 77.0899 55.4946C77.2673 55.2454 77.5113 55.0572 77.8217 54.9187C78.1322 54.7803 78.4759 54.7139 78.8639 54.7139C79.252 54.7139 79.6068 54.7803 79.9062 54.9187C80.2056 55.0572 80.4384 55.2454 80.6103 55.4835C80.7821 55.7272 80.8708 55.9985 80.8764 56.3141H79.9561H79.9672Z" fill="black"/>
<path d="M81.918 54.7915H83.0933L84.8118 58.9776H84.8784L86.597 54.7915H87.7667V60.4228H86.8464V56.4803H86.7965L85.1999 60.4117H84.4903L82.8937 56.4748H82.8438V60.4283H81.9235V54.797L81.918 54.7915Z" fill="black"/>
<path d="M88.9196 60.4228V54.7915H92.5397V55.6055H89.8787V57.2002H92.3512V58.0141H89.8787V59.6199H92.5619V60.4283H88.9141L88.9196 60.4228Z" fill="black"/>
<path d="M98.2169 54.7915V60.4228H97.3576L94.6245 56.4803H94.5802V60.4228H93.6211V54.7915H94.4915L97.219 58.7395H97.2689V54.7915H98.2225H98.2169Z" fill="black"/>
<path d="M99.1133 55.6001V54.7861H103.565V55.6001H101.819V60.423H100.865V55.6001H99.1188H99.1133Z" fill="black"/>
<path d="M106.438 60.4228V54.7915H108.516C108.949 54.7915 109.315 54.8746 109.609 55.0296C109.902 55.1902 110.119 55.4117 110.268 55.6885C110.418 55.9654 110.49 56.2865 110.49 56.6409C110.49 56.9953 110.412 57.3109 110.268 57.5933C110.119 57.8702 109.897 58.0917 109.603 58.2522C109.309 58.4128 108.943 58.4903 108.511 58.4903H107.119V57.693H108.394C108.655 57.693 108.871 57.6487 109.038 57.5545C109.204 57.466 109.326 57.3386 109.403 57.178C109.481 57.0174 109.52 56.8403 109.52 56.6354C109.52 56.4305 109.481 56.2478 109.403 56.0927C109.326 55.9377 109.204 55.8159 109.038 55.7217C108.871 55.6332 108.655 55.5889 108.389 55.5889H107.408V60.4173H106.449L106.438 60.4228Z" fill="black"/>
<path d="M111.416 60.4228V54.7915H112.375V59.6144H114.881V60.4228H111.41H111.416Z" fill="black"/>
<path d="M116.67 60.4228H115.645L117.646 54.7915H118.81L120.811 60.4228H119.786L118.25 55.8989H118.206L116.67 60.4228ZM116.748 58.2135H119.703V58.9997H116.748V58.2135Z" fill="black"/>
<path d="M120.641 55.6001V54.7861H125.092V55.6001H123.346V60.423H122.392V55.6001H120.646H120.641Z" fill="black"/>
<path d="M125.992 60.4228V54.7915H129.562V55.6055H126.951V57.2002H129.313V58.0141H126.951V60.4283H125.992V60.4228Z" fill="black"/>
<path d="M135.52 57.6043C135.52 58.2078 135.409 58.7283 135.181 59.1602C134.954 59.5921 134.649 59.9243 134.261 60.1514C133.873 60.3839 133.435 60.4947 132.947 60.4947C132.459 60.4947 132.016 60.3784 131.628 60.1514C131.24 59.9188 130.935 59.5866 130.713 59.1547C130.491 58.7228 130.375 58.2078 130.375 57.6043C130.375 57.0007 130.486 56.4802 130.713 56.0483C130.935 55.6164 131.245 55.2842 131.628 55.0572C132.016 54.8246 132.454 54.7139 132.947 54.7139C133.441 54.7139 133.879 54.8301 134.261 55.0572C134.649 55.2897 134.954 55.6164 135.181 56.0483C135.409 56.4802 135.52 57.0007 135.52 57.6043ZM134.561 57.6043C134.561 57.1668 134.489 56.7958 134.35 56.4968C134.211 56.1978 134.023 55.9653 133.779 55.8102C133.535 55.6552 133.258 55.5777 132.947 55.5777C132.637 55.5777 132.354 55.6552 132.116 55.8102C131.872 55.9653 131.683 56.1923 131.545 56.4968C131.406 56.8014 131.334 57.1668 131.334 57.6043C131.334 58.0417 131.401 58.4127 131.545 58.7117C131.683 59.0107 131.872 59.2433 132.116 59.3983C132.36 59.5533 132.637 59.6309 132.947 59.6309C133.258 59.6309 133.535 59.5533 133.779 59.3983C134.023 59.2433 134.211 59.0162 134.35 58.7117C134.489 58.4127 134.561 58.0417 134.561 57.6043Z" fill="black"/>
<path d="M136.517 60.4228V54.7915H138.596C139.029 54.7915 139.395 54.869 139.683 55.0185C139.971 55.168 140.198 55.3784 140.343 55.6442C140.492 55.9155 140.564 56.2256 140.564 56.58C140.564 56.9344 140.492 57.2445 140.343 57.5103C140.193 57.7705 139.971 57.9754 139.677 58.1193C139.383 58.2633 139.018 58.3353 138.585 58.3353H137.072V57.5269H138.469C138.729 57.5269 138.94 57.4881 139.106 57.4161C139.273 57.3441 139.395 57.2334 139.472 57.095C139.55 56.9565 139.589 56.7793 139.589 56.5745C139.589 56.3696 139.55 56.1979 139.467 56.0484C139.389 55.8989 139.261 55.7882 139.095 55.7107C138.929 55.6332 138.713 55.5944 138.452 55.5944H137.471V60.4228H136.512H136.517ZM139.383 57.8702L140.78 60.4173H139.699L138.33 57.8702H139.383Z" fill="black"/>
<path d="M141.547 54.7915H142.722L144.441 58.9776H144.507L146.226 54.7915H147.396V60.4228H146.475V56.4803H146.425L144.829 60.4117H144.119L142.523 56.4748H142.473V60.4283H141.552V54.797L141.547 54.7915Z" fill="black"/>
</g>
</g>
<defs>
<clipPath id="clip0_5502_58479">
<rect width="223" height="60" fill="white" transform="translate(0 0.832031)"/>
</clipPath>
<clipPath id="clip1_5502_58479">
<rect width="147" height="59.6795" fill="white" transform="translate(0.394531 0.832031)"/>
</clipPath>
</defs>
</svg>
