<svg width="247" height="61" viewBox="0 0 247 61" fill="none" xmlns="http://www.w3.org/2000/svg">
<g clip-path="url(#clip0_5502_58522)">
<path fill-rule="evenodd" clip-rule="evenodd" d="M0.90625 30.567C0.90625 43.3368 11.0496 53.6613 23.5478 53.6613C36.0459 53.6613 46.1893 43.3368 46.1893 30.567C46.1893 17.7972 36.0459 7.47266 23.5478 7.47266C11.0496 7.47266 0.90625 17.7972 0.90625 30.567Z" fill="url(#paint0_linear_5502_58522)"/>
<path fill-rule="evenodd" clip-rule="evenodd" d="M21.9201 20.1452C21.739 20.1452 21.6484 20.0547 21.6484 19.8735V7.10373C21.739 6.9226 21.8296 6.83203 22.0107 6.83203C22.1918 6.83203 22.2824 6.9226 22.2824 7.10373V19.8735C22.1918 20.0547 22.1013 20.1452 21.9201 20.1452Z" fill="#417505"/>
<path fill-rule="evenodd" clip-rule="evenodd" d="M19.924 18.515C19.7429 18.515 19.6523 18.4245 19.6523 18.2434V7.10373C19.6523 6.9226 19.8335 6.83203 19.924 6.83203C20.1052 6.83203 20.1957 6.9226 20.1957 7.10373V18.2434C20.1957 18.4245 20.1052 18.515 19.924 18.515Z" fill="#417505"/>
<path fill-rule="evenodd" clip-rule="evenodd" d="M25.7209 20.1452C25.5398 20.1452 25.4492 20.0547 25.4492 19.8735V7.10373C25.4492 6.9226 25.5398 6.83203 25.7209 6.83203C25.902 6.83203 25.9926 6.9226 25.9926 7.10373V19.8735C25.9926 20.0547 25.8115 20.1452 25.7209 20.1452Z" fill="#417505"/>
<path fill-rule="evenodd" clip-rule="evenodd" d="M27.4436 18.515C27.2624 18.515 27.1719 18.4245 27.1719 18.2434V7.10373C27.1719 6.9226 27.353 6.83203 27.4436 6.83203C27.6247 6.83203 27.7153 6.9226 27.7153 7.10373V18.2434C27.7153 18.4245 27.6247 18.515 27.4436 18.515Z" fill="#417505"/>
<path fill-rule="evenodd" clip-rule="evenodd" d="M20.9238 20.4236C20.3804 20.0613 19.9275 19.6991 19.3841 19.3368C19.1124 19.1557 18.9313 18.9745 18.8407 18.7028V7.74435C18.8407 7.65379 18.7502 7.47266 18.6596 7.47266H18.3879C18.3879 10.9142 18.2973 16.9821 18.3879 20.1519C18.3879 21.0576 18.7502 21.8727 19.5653 22.3255C20.3804 22.7783 21.1049 23.2311 22.0105 23.684C21.92 23.05 21.92 22.3255 21.8294 21.6915C21.6483 21.1481 21.286 20.7859 20.9238 20.4236Z" fill="#417505"/>
<path fill-rule="evenodd" clip-rule="evenodd" d="M20.3799 24.2186C19.6554 23.7658 19.0214 23.2224 18.2969 22.7695C18.2969 23.2224 18.2969 23.5846 18.2969 24.128C18.2969 25.0337 18.6591 25.7582 19.2931 26.211C20.1082 26.7544 21.0139 27.2978 21.8289 27.9318C21.8289 27.5695 21.7384 27.1167 21.7384 26.7544C21.7384 25.2148 21.2856 24.762 20.3799 24.2186Z" fill="#417505"/>
<path fill-rule="evenodd" clip-rule="evenodd" d="M20.3799 28.3905C19.6554 27.9376 19.0214 27.3942 18.2969 26.9414C18.2969 27.3942 18.2969 27.7565 18.2969 28.2999C18.2969 29.2056 18.6591 29.9301 19.2931 30.3829C20.1082 30.9263 21.0139 31.4697 21.8289 32.1037C21.8289 31.7414 21.7384 31.2886 21.7384 30.9263C21.7384 29.3867 21.2856 28.9339 20.3799 28.3905Z" fill="#417505"/>
<path fill-rule="evenodd" clip-rule="evenodd" d="M20.376 32.2811C19.6515 31.8283 19.0175 31.2849 18.293 30.832C18.293 31.2849 18.293 31.6471 18.293 32.1905C18.293 33.0962 18.6552 33.8207 19.2892 34.2735C20.1043 34.8169 21.0099 35.3603 21.825 35.9943C21.825 35.632 21.7345 35.1792 21.7345 34.8169C21.7345 33.2773 21.2816 32.8245 20.376 32.2811Z" fill="#417505"/>
<path fill-rule="evenodd" clip-rule="evenodd" d="M20.3799 36.453C19.6554 36.0001 19.0214 35.4567 18.2969 35.0039C18.2969 35.4567 18.2969 35.819 18.2969 36.3624C18.2969 37.2681 18.6591 37.9926 19.2931 38.4454C20.1082 38.9888 21.0139 39.5322 21.8289 40.1662C21.8289 39.8039 21.7384 39.3511 21.7384 38.9888C21.7384 37.4492 21.2856 37.0869 20.3799 36.453Z" fill="#417505"/>
<path fill-rule="evenodd" clip-rule="evenodd" d="M29.3453 20.1519C29.3453 17.6161 29.3453 12.9972 29.3453 9.55568V7.74435V7.65379C29.3453 7.56322 29.3453 7.47266 29.3453 7.47266H29.0736H28.983C28.8925 7.47266 28.8019 7.56322 28.8019 7.74435V18.7934C28.7113 18.9745 28.5302 19.2462 28.2585 19.3368C27.7151 19.6991 27.2623 20.0613 26.7189 20.4236C26.2661 20.7859 25.9944 21.1481 25.9038 21.6915C25.8132 22.3255 25.8132 23.05 25.7227 23.684C26.5378 23.2311 27.3528 22.7783 28.1679 22.3255C28.983 21.8727 29.3453 21.0576 29.3453 20.1519Z" fill="#417505"/>
<path fill-rule="evenodd" clip-rule="evenodd" d="M29.3446 22.6836C28.62 23.227 27.8955 23.6798 27.2616 24.1327C26.3559 24.676 25.8125 25.1289 25.9031 26.5779C25.9031 26.9402 25.8125 27.393 25.8125 27.7553C26.6276 27.2119 27.5333 26.6685 28.3483 26.0345C29.0729 25.5817 29.4351 24.8572 29.3446 23.9515C29.3446 23.4987 29.3446 23.1364 29.3446 22.6836Z" fill="#417505"/>
<path fill-rule="evenodd" clip-rule="evenodd" d="M29.3446 26.9414C28.62 27.4848 27.8955 27.9376 27.2616 28.3905C26.3559 28.9339 25.8125 29.3867 25.9031 30.8357C25.9031 31.198 25.8125 31.6508 25.8125 32.0131C26.6276 31.4697 27.5333 30.9263 28.3483 30.2923C29.0729 29.8395 29.4351 29.115 29.3446 28.2093C29.3446 27.7565 29.3446 27.3037 29.3446 26.9414Z" fill="#417505"/>
<path fill-rule="evenodd" clip-rule="evenodd" d="M29.3446 30.832C28.62 31.3754 27.8955 31.8283 27.2616 32.2811C26.3559 32.8245 25.8125 33.2773 25.9031 34.7264C25.9031 35.0886 25.8125 35.5415 25.8125 35.9037C26.6276 35.3603 27.5333 34.8169 28.3483 34.183C29.0729 33.7301 29.4351 33.0056 29.3446 32.1C29.3446 31.6471 29.3446 31.1943 29.3446 30.832Z" fill="#417505"/>
<path fill-rule="evenodd" clip-rule="evenodd" d="M29.3446 35.0039C28.62 35.5473 27.8955 36.0001 27.2616 36.453C26.3559 36.9964 25.8125 37.4492 25.9031 38.8982C25.9031 39.2605 25.8125 39.7133 25.8125 40.0756C26.6276 39.5322 27.5333 38.9888 28.3483 38.3548C29.0729 37.902 29.4351 37.1775 29.3446 36.2718C29.3446 35.819 29.3446 35.4567 29.3446 35.0039Z" fill="#417505"/>
<path fill-rule="evenodd" clip-rule="evenodd" d="M24.0007 18.6056V6.83203H23.729H23.4573V18.6056C23.4573 19.4207 23.1856 20.2358 22.7328 20.9603C22.1894 21.866 22.0988 22.9528 22.5517 23.949C22.7328 24.3113 22.8234 24.2207 23.0951 23.949C23.2762 23.6773 23.4573 23.4962 23.6384 23.2245C23.8196 23.4962 24.0007 23.6773 24.1818 23.949C24.4535 24.2207 24.5441 24.3113 24.7252 23.949C25.2686 22.9528 25.1781 21.9566 24.5441 20.9603C24.2724 20.3264 24.0007 19.5113 24.0007 18.6056Z" fill="#417505"/>
<path fill-rule="evenodd" clip-rule="evenodd" d="M23.6382 23.9492C23.2759 24.3115 23.0042 24.5832 22.8231 24.9454C22.1891 25.8511 22.0986 26.8473 22.642 27.9341C22.8231 28.2964 23.0042 28.2964 23.2759 27.9341C23.4571 27.753 23.5476 27.4813 23.6382 27.3002C23.7288 27.4813 23.9099 27.753 24.0005 27.9341C24.2721 28.2964 24.4533 28.2964 24.6344 27.9341C25.1778 26.9379 25.0872 25.9417 24.4533 24.9454C24.2721 24.5832 24.0005 24.2209 23.6382 23.9492C23.7288 23.9492 23.7288 23.9492 23.6382 23.9492Z" fill="#417505"/>
<path fill-rule="evenodd" clip-rule="evenodd" d="M22.642 32.0044C22.8231 32.3667 23.0042 32.3667 23.2759 32.0044C23.4571 31.8233 23.5476 31.5516 23.6382 31.3705C23.7288 31.5516 23.9099 31.8233 24.0005 32.0044C24.2721 32.3667 24.4533 32.3667 24.6344 32.0044C25.1778 31.0082 25.0872 30.012 24.4533 29.0158C24.1816 28.6535 23.9099 28.3818 23.7288 28.0195H23.6382H23.5476C23.2759 28.2912 23.0042 28.6535 22.8231 29.0158C22.1891 30.012 22.0986 31.0082 22.642 32.0044Z" fill="#417505"/>
<path fill-rule="evenodd" clip-rule="evenodd" d="M22.642 36.2701C22.8231 36.6323 23.0042 36.6323 23.2759 36.2701C23.4571 36.0889 23.5476 35.8172 23.6382 35.6361C23.7288 35.8172 23.9099 36.0889 24.0005 36.2701C24.2721 36.6323 24.4533 36.6323 24.6344 36.2701C25.1778 35.2738 25.0872 34.2776 24.4533 33.2814C24.1816 32.9191 23.9099 32.6474 23.7288 32.2852H23.6382H23.5476C23.2759 32.5569 23.0042 32.9191 22.8231 33.2814C22.1891 34.2776 22.0986 35.2738 22.642 36.2701Z" fill="#417505"/>
<path fill-rule="evenodd" clip-rule="evenodd" d="M23.6405 36.5352C23.6405 36.5352 22.1914 37.8936 22.1914 39.071C22.1914 39.9767 23.0065 40.9729 23.3688 41.4257V50.5729H23.9122V41.4257C24.2744 40.9729 24.999 39.9767 24.999 39.071C25.0895 37.8031 23.6405 36.5352 23.6405 36.5352Z" fill="#417505"/>
<path fill-rule="evenodd" clip-rule="evenodd" d="M11.4108 11.5444L11.3202 11.635C8.24099 13.8991 -1.63071 22.2312 1.90137 36.0878C3.98438 44.3293 9.32778 48.7671 13.4938 51.0312C17.9316 53.3859 21.9165 53.9293 23.275 53.8388C23.275 52.118 22.9127 45.5972 19.1089 40.7067C15.0334 35.4538 13.4033 32.1935 13.675 29.7482C13.7655 28.752 13.7655 28.2991 13.675 28.118C12.8599 28.6614 10.324 33.0991 12.5882 39.3482L13.9466 43.0614L11.7731 39.8916C11.5014 39.4388 5.07118 30.201 7.24476 21.4161C8.78438 15.4388 10.8674 13.084 11.8636 11.9067C12.1353 11.5444 12.2259 11.3633 12.2259 11.3633C12.2259 11.3633 12.1353 11.3633 12.0448 11.3633C11.8636 11.3633 11.6825 11.3633 11.4108 11.5444Z" fill="url(#paint1_linear_5502_58522)"/>
<path fill-rule="evenodd" clip-rule="evenodd" d="M24.4542 53.6505C25.8127 53.8316 29.9787 53.2882 34.4165 50.843C38.5825 48.5788 43.9259 44.2317 46.0089 35.9901C49.541 22.1335 39.5787 13.7109 36.4995 11.5373L36.4089 11.4467C36.0467 11.175 35.6844 11.175 35.5938 11.2656C35.5938 11.2656 35.5938 11.4467 35.8655 11.809C36.8618 12.9864 39.0353 15.3411 40.575 21.3184C42.8391 30.1033 36.3184 39.3411 36.0467 39.7939L33.7825 42.9637L35.141 39.2505C37.5863 32.6392 34.5976 28.292 34.1448 28.0203H34.0542C33.9636 28.2015 33.9636 28.6543 34.0542 29.6505C34.3259 32.0052 32.6957 35.2656 28.6203 40.609C24.907 45.3184 24.5448 51.9298 24.4542 53.6505ZM24.9976 54.7373C24.4542 54.7373 24.0014 54.6467 23.8203 54.5562L23.458 54.4656V54.1033C23.458 53.7411 23.2769 45.7713 27.8957 39.8845C31.6995 34.9939 33.4203 31.8241 33.1486 29.7411C32.9674 28.2015 33.058 27.3864 33.6014 27.0241C33.8731 26.843 34.2353 26.7524 34.7787 27.1147C35.5938 27.6581 37.7674 31.009 37.0429 35.9901C38.7636 32.5486 41.0278 26.843 39.6693 21.4996C38.2203 15.7939 36.2278 13.5298 35.2316 12.443C34.507 11.6279 34.5976 10.9033 34.8693 10.4505C35.3221 9.90712 36.3184 9.90712 37.0429 10.4505L37.1335 10.6316C40.3938 12.9864 50.7184 21.6807 47.0957 36.2618C44.9221 44.8656 39.307 49.3939 34.9599 51.7486C30.975 53.9222 27.0806 54.7373 24.9976 54.7373Z" fill="#231F20"/>
<path fill-rule="evenodd" clip-rule="evenodd" d="M11.9559 11.1782C11.7747 11.1782 11.5936 11.2688 11.3219 11.4499L11.2313 11.5405C8.1521 13.7141 -1.7196 22.0462 1.81248 35.9933C3.8955 44.2348 9.23889 48.6726 13.4049 50.9367C17.8427 53.2914 21.8276 53.8348 23.1861 53.7443C23.1861 52.0235 22.8238 45.5028 19.02 40.6122C14.9446 35.3594 13.3144 32.099 13.5861 29.6537C13.6766 28.6575 13.6766 28.2046 13.5861 28.0235C13.5861 28.0235 13.5861 28.0235 13.4955 28.0235C12.771 28.4763 10.2351 33.0046 12.4993 39.2537L13.8578 42.9669L11.5936 39.7065C11.3219 39.3443 4.89172 30.016 7.06531 21.2311C8.60493 15.2537 10.6879 12.899 11.6842 11.7216C11.9559 11.3594 11.9559 11.1782 11.9559 11.1782C12.0464 11.1782 12.0464 11.1782 11.9559 11.1782ZM12.8615 51.8424C8.51436 49.4877 2.98984 44.8688 0.816252 36.265C-2.80639 21.6839 7.42757 12.9895 10.6879 10.6348L10.7785 10.5443C11.503 10.0009 12.4993 10.0009 12.9521 10.5443C13.3144 10.9065 13.4049 11.6311 12.5898 12.5367C11.5936 13.6235 9.60116 15.7971 8.1521 21.5933C6.79361 26.9367 8.96719 32.6424 10.6879 36.0839C10.054 31.1028 12.137 27.7518 12.9521 27.2084C13.4955 26.8462 13.8578 26.9367 14.1295 27.1178C14.6729 27.4801 14.7634 28.2952 14.5823 29.8348C14.3106 31.8273 15.9408 35.0877 19.7446 39.9782C24.3634 45.865 24.1823 53.8348 24.1823 54.1971V54.5594L23.82 54.6499C23.5483 54.7405 23.1861 54.8311 22.6427 54.8311C20.5596 54.7405 16.8464 53.9254 12.8615 51.8424Z" fill="#231F20"/>
<path fill-rule="evenodd" clip-rule="evenodd" d="M35.7724 11.3633C35.7724 11.3633 35.863 11.3633 35.9536 11.3633C36.1347 11.3633 36.3158 11.4538 36.5875 11.635L36.6781 11.7255C39.8479 13.9897 49.5385 22.2312 46.0064 36.1784C43.9234 44.4199 38.7611 48.8576 34.5951 51.1218C30.1573 53.5671 25.9913 54.1105 24.6328 53.9293C24.6328 52.2086 24.9951 45.6878 28.8894 40.7972C33.0555 35.5444 34.6856 32.284 34.3234 29.8388C34.2328 28.8425 34.2328 28.3897 34.3234 28.2086C34.3234 28.2086 34.3234 28.2086 34.4139 28.2086C34.8668 28.4803 37.8555 32.8274 35.4102 39.4388L33.9611 43.0614L36.2253 39.8916C36.497 39.5293 43.0177 30.201 40.7536 21.4161C39.2139 15.4388 37.0404 12.9935 36.0441 11.9067C35.7724 11.5444 35.7724 11.3633 35.7724 11.3633Z" fill="url(#paint2_linear_5502_58522)"/>
</g>
<path d="M68.688 16.944C68.688 17.872 68.368 18.6454 67.728 19.264C67.0987 19.872 66.1333 20.176 64.832 20.176H62.688V24.832H61.232V13.68H64.832C66.0907 13.68 67.0453 13.984 67.696 14.592C68.3573 15.2 68.688 15.984 68.688 16.944ZM64.832 18.976C65.6427 18.976 66.24 18.8 66.624 18.448C67.008 18.096 67.2 17.5947 67.2 16.944C67.2 15.568 66.4107 14.88 64.832 14.88H62.688V18.976H64.832ZM71.9536 17.488C72.2096 16.9867 72.5723 16.5974 73.0416 16.32C73.5216 16.0427 74.103 15.904 74.7856 15.904V17.408H74.4016C72.7696 17.408 71.9536 18.2934 71.9536 20.064V24.832H70.4976V16.064H71.9536V17.488ZM75.9224 20.416C75.9224 19.52 76.1037 18.736 76.4664 18.064C76.829 17.3814 77.325 16.8534 77.9544 16.48C78.5944 16.1067 79.3037 15.92 80.0824 15.92C80.8504 15.92 81.517 16.0854 82.0824 16.416C82.6477 16.7467 83.069 17.1627 83.3464 17.664V16.064H84.8184V24.832H83.3464V23.2C83.0584 23.712 82.6264 24.1387 82.0504 24.48C81.485 24.8107 80.8237 24.976 80.0664 24.976C79.2877 24.976 78.5837 24.784 77.9544 24.4C77.325 24.016 76.829 23.4774 76.4664 22.784C76.1037 22.0907 75.9224 21.3014 75.9224 20.416ZM83.3464 20.432C83.3464 19.7707 83.213 19.1947 82.9464 18.704C82.6797 18.2134 82.317 17.84 81.8584 17.584C81.4104 17.3174 80.9144 17.184 80.3704 17.184C79.8264 17.184 79.3304 17.312 78.8824 17.568C78.4344 17.824 78.077 18.1974 77.8104 18.688C77.5437 19.1787 77.4104 19.7547 77.4104 20.416C77.4104 21.088 77.5437 21.6747 77.8104 22.176C78.077 22.6667 78.4344 23.0454 78.8824 23.312C79.3304 23.568 79.8264 23.696 80.3704 23.696C80.9144 23.696 81.4104 23.568 81.8584 23.312C82.317 23.0454 82.6797 22.6667 82.9464 22.176C83.213 21.6747 83.3464 21.0934 83.3464 20.432ZM86.7349 20.416C86.7349 19.52 86.9162 18.736 87.2789 18.064C87.6415 17.3814 88.1375 16.8534 88.7669 16.48C89.4069 16.1067 90.1215 15.92 90.9109 15.92C91.5935 15.92 92.2282 16.08 92.8149 16.4C93.4015 16.7094 93.8495 17.12 94.1589 17.632V12.992H95.6309V24.832H94.1589V23.184C93.8709 23.7067 93.4442 24.1387 92.8789 24.48C92.3135 24.8107 91.6522 24.976 90.8949 24.976C90.1162 24.976 89.4069 24.784 88.7669 24.4C88.1375 24.016 87.6415 23.4774 87.2789 22.784C86.9162 22.0907 86.7349 21.3014 86.7349 20.416ZM94.1589 20.432C94.1589 19.7707 94.0255 19.1947 93.7589 18.704C93.4922 18.2134 93.1295 17.84 92.6709 17.584C92.2229 17.3174 91.7269 17.184 91.1829 17.184C90.6389 17.184 90.1429 17.312 89.6949 17.568C89.2469 17.824 88.8895 18.1974 88.6229 18.688C88.3562 19.1787 88.2229 19.7547 88.2229 20.416C88.2229 21.088 88.3562 21.6747 88.6229 22.176C88.8895 22.6667 89.2469 23.0454 89.6949 23.312C90.1429 23.568 90.6389 23.696 91.1829 23.696C91.7269 23.696 92.2229 23.568 92.6709 23.312C93.1295 23.0454 93.4922 22.6667 93.7589 22.176C94.0255 21.6747 94.1589 21.0934 94.1589 20.432ZM102.443 15.904C103.105 15.904 103.702 16.048 104.235 16.336C104.769 16.6134 105.185 17.0347 105.483 17.6C105.793 18.1654 105.947 18.8534 105.947 19.664V24.832H104.507V19.872C104.507 18.9974 104.289 18.3307 103.851 17.872C103.414 17.4027 102.817 17.168 102.059 17.168C101.291 17.168 100.678 17.408 100.219 17.888C99.7714 18.368 99.5474 19.0667 99.5474 19.984V24.832H98.0914V12.992H99.5474V17.312C99.8354 16.864 100.23 16.5174 100.731 16.272C101.243 16.0267 101.814 15.904 102.443 15.904ZM107.782 20.416C107.782 19.52 107.963 18.736 108.326 18.064C108.688 17.3814 109.184 16.8534 109.814 16.48C110.454 16.1067 111.163 15.92 111.942 15.92C112.71 15.92 113.376 16.0854 113.942 16.416C114.507 16.7467 114.928 17.1627 115.206 17.664V16.064H116.678V24.832H115.206V23.2C114.918 23.712 114.486 24.1387 113.91 24.48C113.344 24.8107 112.683 24.976 111.926 24.976C111.147 24.976 110.443 24.784 109.814 24.4C109.184 24.016 108.688 23.4774 108.326 22.784C107.963 22.0907 107.782 21.3014 107.782 20.416ZM115.206 20.432C115.206 19.7707 115.072 19.1947 114.806 18.704C114.539 18.2134 114.176 17.84 113.718 17.584C113.27 17.3174 112.774 17.184 112.23 17.184C111.686 17.184 111.19 17.312 110.742 17.568C110.294 17.824 109.936 18.1974 109.67 18.688C109.403 19.1787 109.27 19.7547 109.27 20.416C109.27 21.088 109.403 21.6747 109.67 22.176C109.936 22.6667 110.294 23.0454 110.742 23.312C111.19 23.568 111.686 23.696 112.23 23.696C112.774 23.696 113.27 23.568 113.718 23.312C114.176 23.0454 114.539 22.6667 114.806 22.176C115.072 21.6747 115.206 21.0934 115.206 20.432ZM123.41 15.904C124.477 15.904 125.341 16.2294 126.002 16.88C126.664 17.52 126.994 18.448 126.994 19.664V24.832H125.554V19.872C125.554 18.9974 125.336 18.3307 124.898 17.872C124.461 17.4027 123.864 17.168 123.106 17.168C122.338 17.168 121.725 17.408 121.266 17.888C120.818 18.368 120.594 19.0667 120.594 19.984V24.832H119.138V16.064H120.594V17.312C120.882 16.864 121.272 16.5174 121.762 16.272C122.264 16.0267 122.813 15.904 123.41 15.904ZM144.95 13.76V24.832H143.494V16.576L139.814 24.832H138.79L135.094 16.56V24.832H133.638V13.76H135.206L139.302 22.912L143.398 13.76H144.95ZM146.876 20.416C146.876 19.52 147.057 18.736 147.42 18.064C147.782 17.3814 148.278 16.8534 148.908 16.48C149.548 16.1067 150.257 15.92 151.036 15.92C151.804 15.92 152.47 16.0854 153.036 16.416C153.601 16.7467 154.022 17.1627 154.3 17.664V16.064H155.772V24.832H154.3V23.2C154.012 23.712 153.58 24.1387 153.004 24.48C152.438 24.8107 151.777 24.976 151.02 24.976C150.241 24.976 149.537 24.784 148.908 24.4C148.278 24.016 147.782 23.4774 147.42 22.784C147.057 22.0907 146.876 21.3014 146.876 20.416ZM154.3 20.432C154.3 19.7707 154.166 19.1947 153.9 18.704C153.633 18.2134 153.27 17.84 152.812 17.584C152.364 17.3174 151.868 17.184 151.324 17.184C150.78 17.184 150.284 17.312 149.836 17.568C149.388 17.824 149.03 18.1974 148.764 18.688C148.497 19.1787 148.364 19.7547 148.364 20.416C148.364 21.088 148.497 21.6747 148.764 22.176C149.03 22.6667 149.388 23.0454 149.836 23.312C150.284 23.568 150.78 23.696 151.324 23.696C151.868 23.696 152.364 23.568 152.812 23.312C153.27 23.0454 153.633 22.6667 153.9 22.176C154.166 21.6747 154.3 21.0934 154.3 20.432ZM162.504 15.904C163.571 15.904 164.435 16.2294 165.096 16.88C165.757 17.52 166.088 18.448 166.088 19.664V24.832H164.648V19.872C164.648 18.9974 164.429 18.3307 163.992 17.872C163.555 17.4027 162.957 17.168 162.2 17.168C161.432 17.168 160.819 17.408 160.36 17.888C159.912 18.368 159.688 19.0667 159.688 19.984V24.832H158.232V16.064H159.688V17.312C159.976 16.864 160.365 16.5174 160.856 16.272C161.357 16.0267 161.907 15.904 162.504 15.904ZM170.242 17.264V22.432C170.242 22.8587 170.333 23.1627 170.514 23.344C170.696 23.5147 171.01 23.6 171.458 23.6H172.53V24.832H171.218C170.408 24.832 169.8 24.6454 169.394 24.272C168.989 23.8987 168.786 23.2854 168.786 22.432V17.264H167.65V16.064H168.786V13.856H170.242V16.064H172.53V17.264H170.242ZM175.751 17.488C176.007 16.9867 176.369 16.5974 176.839 16.32C177.319 16.0427 177.9 15.904 178.583 15.904V17.408H178.199C176.567 17.408 175.751 18.2934 175.751 20.064V24.832H174.295V16.064H175.751V17.488ZM181.015 14.64C180.738 14.64 180.503 14.544 180.311 14.352C180.119 14.16 180.023 13.9254 180.023 13.648C180.023 13.3707 180.119 13.136 180.311 12.944C180.503 12.752 180.738 12.656 181.015 12.656C181.282 12.656 181.506 12.752 181.687 12.944C181.879 13.136 181.975 13.3707 181.975 13.648C181.975 13.9254 181.879 14.16 181.687 14.352C181.506 14.544 181.282 14.64 181.015 14.64ZM181.719 16.064V24.832H180.263V16.064H181.719ZM194.77 13.68V14.864H189.922V18.624H193.858V19.808H189.922V24.832H188.466V13.68H194.77ZM195.985 20.416C195.985 19.52 196.166 18.736 196.529 18.064C196.892 17.3814 197.388 16.8534 198.017 16.48C198.657 16.1067 199.366 15.92 200.145 15.92C200.913 15.92 201.58 16.0854 202.145 16.416C202.71 16.7467 203.132 17.1627 203.409 17.664V16.064H204.881V24.832H203.409V23.2C203.121 23.712 202.689 24.1387 202.113 24.48C201.548 24.8107 200.886 24.976 200.129 24.976C199.35 24.976 198.646 24.784 198.017 24.4C197.388 24.016 196.892 23.4774 196.529 22.784C196.166 22.0907 195.985 21.3014 195.985 20.416ZM203.409 20.432C203.409 19.7707 203.276 19.1947 203.009 18.704C202.742 18.2134 202.38 17.84 201.921 17.584C201.473 17.3174 200.977 17.184 200.433 17.184C199.889 17.184 199.393 17.312 198.945 17.568C198.497 17.824 198.14 18.1974 197.873 18.688C197.606 19.1787 197.473 19.7547 197.473 20.416C197.473 21.088 197.606 21.6747 197.873 22.176C198.14 22.6667 198.497 23.0454 198.945 23.312C199.393 23.568 199.889 23.696 200.433 23.696C200.977 23.696 201.473 23.568 201.921 23.312C202.38 23.0454 202.742 22.6667 203.009 22.176C203.276 21.6747 203.409 21.0934 203.409 20.432ZM210.445 24.976C209.773 24.976 209.171 24.864 208.637 24.64C208.104 24.4054 207.683 24.0854 207.373 23.68C207.064 23.264 206.893 22.7894 206.861 22.256H208.365C208.408 22.6934 208.611 23.0507 208.973 23.328C209.347 23.6054 209.832 23.744 210.429 23.744C210.984 23.744 211.421 23.6214 211.741 23.376C212.061 23.1307 212.221 22.8214 212.221 22.448C212.221 22.064 212.051 21.7814 211.709 21.6C211.368 21.408 210.84 21.2214 210.125 21.04C209.475 20.8694 208.941 20.6987 208.525 20.528C208.12 20.3467 207.768 20.0854 207.469 19.744C207.181 19.392 207.037 18.9334 207.037 18.368C207.037 17.92 207.171 17.5094 207.437 17.136C207.704 16.7627 208.083 16.4694 208.573 16.256C209.064 16.032 209.624 15.92 210.253 15.92C211.224 15.92 212.008 16.1654 212.605 16.656C213.203 17.1467 213.523 17.8187 213.565 18.672H212.109C212.077 18.2134 211.891 17.8454 211.549 17.568C211.219 17.2907 210.771 17.152 210.205 17.152C209.683 17.152 209.267 17.264 208.957 17.488C208.648 17.712 208.493 18.0054 208.493 18.368C208.493 18.656 208.584 18.896 208.765 19.088C208.957 19.2694 209.192 19.4187 209.469 19.536C209.757 19.6427 210.152 19.7654 210.653 19.904C211.283 20.0747 211.795 20.2454 212.189 20.416C212.584 20.576 212.92 20.8214 213.197 21.152C213.485 21.4827 213.635 21.9147 213.645 22.448C213.645 22.928 213.512 23.36 213.245 23.744C212.979 24.128 212.6 24.432 212.109 24.656C211.629 24.8694 211.075 24.976 210.445 24.976ZM215.157 20.416C215.157 19.52 215.338 18.736 215.701 18.064C216.063 17.3814 216.559 16.8534 217.189 16.48C217.829 16.1067 218.538 15.92 219.317 15.92C220.085 15.92 220.751 16.0854 221.317 16.416C221.882 16.7467 222.303 17.1627 222.581 17.664V16.064H224.053V24.832H222.581V23.2C222.293 23.712 221.861 24.1387 221.285 24.48C220.719 24.8107 220.058 24.976 219.301 24.976C218.522 24.976 217.818 24.784 217.189 24.4C216.559 24.016 216.063 23.4774 215.701 22.784C215.338 22.0907 215.157 21.3014 215.157 20.416ZM222.581 20.432C222.581 19.7707 222.447 19.1947 222.181 18.704C221.914 18.2134 221.551 17.84 221.093 17.584C220.645 17.3174 220.149 17.184 219.605 17.184C219.061 17.184 218.565 17.312 218.117 17.568C217.669 17.824 217.311 18.1974 217.045 18.688C216.778 19.1787 216.645 19.7547 216.645 20.416C216.645 21.088 216.778 21.6747 217.045 22.176C217.311 22.6667 217.669 23.0454 218.117 23.312C218.565 23.568 219.061 23.696 219.605 23.696C220.149 23.696 220.645 23.568 221.093 23.312C221.551 23.0454 221.914 22.6667 222.181 22.176C222.447 21.6747 222.581 21.0934 222.581 20.432ZM227.969 12.992V24.832H226.513V12.992H227.969ZM66.816 43.088C67.2213 43.152 67.5893 43.3174 67.92 43.584C68.2613 43.8507 68.528 44.1814 68.72 44.576C68.9227 44.9707 69.024 45.392 69.024 45.84C69.024 46.4054 68.88 46.9174 68.592 47.376C68.304 47.824 67.8827 48.1814 67.328 48.448C66.784 48.704 66.1387 48.832 65.392 48.832H61.232V37.68H65.232C65.9893 37.68 66.6347 37.808 67.168 38.064C67.7013 38.3094 68.1013 38.6454 68.368 39.072C68.6347 39.4987 68.768 39.9787 68.768 40.512C68.768 41.1734 68.5867 41.7227 68.224 42.16C67.872 42.5867 67.4027 42.896 66.816 43.088ZM62.688 42.496H65.136C65.8187 42.496 66.3467 42.336 66.72 42.016C67.0933 41.696 67.28 41.2534 67.28 40.688C67.28 40.1227 67.0933 39.68 66.72 39.36C66.3467 39.04 65.808 38.88 65.104 38.88H62.688V42.496ZM65.264 47.632C65.9893 47.632 66.5547 47.4614 66.96 47.12C67.3653 46.7787 67.568 46.304 67.568 45.696C67.568 45.0774 67.3547 44.592 66.928 44.24C66.5013 43.8774 65.9307 43.696 65.216 43.696H62.688V47.632H65.264ZM71.7965 38.64C71.5192 38.64 71.2845 38.544 71.0925 38.352C70.9005 38.16 70.8045 37.9254 70.8045 37.648C70.8045 37.3707 70.9005 37.136 71.0925 36.944C71.2845 36.752 71.5192 36.656 71.7965 36.656C72.0632 36.656 72.2872 36.752 72.4685 36.944C72.6605 37.136 72.7565 37.3707 72.7565 37.648C72.7565 37.9254 72.6605 38.16 72.4685 38.352C72.2872 38.544 72.0632 38.64 71.7965 38.64ZM72.5005 40.064V48.832H71.0445V40.064H72.5005ZM85.526 39.904C86.2087 39.904 86.8167 40.048 87.35 40.336C87.8833 40.6134 88.3047 41.0347 88.614 41.6C88.9233 42.1654 89.078 42.8534 89.078 43.664V48.832H87.638V43.872C87.638 42.9974 87.4193 42.3307 86.982 41.872C86.5553 41.4027 85.974 41.168 85.238 41.168C84.4807 41.168 83.878 41.4134 83.43 41.904C82.982 42.384 82.758 43.0827 82.758 44V48.832H81.318V43.872C81.318 42.9974 81.0993 42.3307 80.662 41.872C80.2353 41.4027 79.654 41.168 78.918 41.168C78.1607 41.168 77.558 41.4134 77.11 41.904C76.662 42.384 76.438 43.0827 76.438 44V48.832H74.982V40.064H76.438V41.328C76.726 40.8694 77.11 40.5174 77.59 40.272C78.0807 40.0267 78.6193 39.904 79.206 39.904C79.942 39.904 80.5927 40.0694 81.158 40.4C81.7233 40.7307 82.1447 41.216 82.422 41.856C82.6673 41.2374 83.0727 40.7574 83.638 40.416C84.2033 40.0747 84.8327 39.904 85.526 39.904ZM90.9224 44.416C90.9224 43.52 91.1037 42.736 91.4664 42.064C91.829 41.3814 92.325 40.8534 92.9544 40.48C93.5944 40.1067 94.3037 39.92 95.0824 39.92C95.8504 39.92 96.517 40.0854 97.0824 40.416C97.6477 40.7467 98.069 41.1627 98.3464 41.664V40.064H99.8184V48.832H98.3464V47.2C98.0584 47.712 97.6264 48.1387 97.0504 48.48C96.485 48.8107 95.8237 48.976 95.0664 48.976C94.2877 48.976 93.5837 48.784 92.9544 48.4C92.325 48.016 91.829 47.4774 91.4664 46.784C91.1037 46.0907 90.9224 45.3014 90.9224 44.416ZM98.3464 44.432C98.3464 43.7707 98.213 43.1947 97.9464 42.704C97.6797 42.2134 97.317 41.84 96.8584 41.584C96.4104 41.3174 95.9144 41.184 95.3704 41.184C94.8264 41.184 94.3304 41.312 93.8824 41.568C93.4344 41.824 93.077 42.1974 92.8104 42.688C92.5437 43.1787 92.4104 43.7547 92.4104 44.416C92.4104 45.088 92.5437 45.6747 92.8104 46.176C93.077 46.6667 93.4344 47.0454 93.8824 47.312C94.3304 47.568 94.8264 47.696 95.3704 47.696C95.9144 47.696 96.4104 47.568 96.8584 47.312C97.317 47.0454 97.6797 46.6667 97.9464 46.176C98.213 45.6747 98.3464 45.0934 98.3464 44.432ZM114.352 37.68L110.721 44.624V48.832H109.265V44.624L105.617 37.68H107.233L109.985 43.328L112.737 37.68H114.352ZM119.712 48.976C118.891 48.976 118.144 48.7894 117.472 48.416C116.811 48.0427 116.288 47.5147 115.904 46.832C115.531 46.1387 115.344 45.3387 115.344 44.432C115.344 43.536 115.536 42.7467 115.92 42.064C116.315 41.3707 116.848 40.8427 117.52 40.48C118.192 40.1067 118.944 39.92 119.776 39.92C120.608 39.92 121.36 40.1067 122.032 40.48C122.704 40.8427 123.232 41.3654 123.616 42.048C124.011 42.7307 124.208 43.5254 124.208 44.432C124.208 45.3387 124.006 46.1387 123.6 46.832C123.206 47.5147 122.667 48.0427 121.984 48.416C121.302 48.7894 120.544 48.976 119.712 48.976ZM119.712 47.696C120.235 47.696 120.726 47.5734 121.184 47.328C121.643 47.0827 122.011 46.7147 122.288 46.224C122.576 45.7334 122.72 45.136 122.72 44.432C122.72 43.728 122.582 43.1307 122.304 42.64C122.027 42.1494 121.664 41.7867 121.216 41.552C120.768 41.3067 120.283 41.184 119.76 41.184C119.227 41.184 118.736 41.3067 118.288 41.552C117.851 41.7867 117.499 42.1494 117.232 42.64C116.966 43.1307 116.832 43.728 116.832 44.432C116.832 45.1467 116.96 45.7494 117.216 46.24C117.483 46.7307 117.835 47.0987 118.272 47.344C118.71 47.5787 119.19 47.696 119.712 47.696ZM126.907 38.64C126.629 38.64 126.395 38.544 126.203 38.352C126.021 38.16 125.931 37.9254 125.931 37.648C125.931 37.3707 126.021 37.136 126.203 36.944C126.395 36.752 126.629 36.656 126.907 36.656C127.184 36.656 127.413 36.752 127.595 36.944C127.787 37.136 127.883 37.3707 127.883 37.648C127.883 37.9254 127.787 38.16 127.595 38.352C127.413 38.544 127.184 38.64 126.907 38.64ZM127.627 50.736C127.627 51.5147 127.429 52.0854 127.035 52.448C126.64 52.8107 126.064 52.992 125.307 52.992H124.459V51.76H125.067C125.472 51.76 125.755 51.68 125.915 51.52C126.085 51.36 126.171 51.088 126.171 50.704V40.064H127.627V50.736ZM134.363 39.904C135.43 39.904 136.294 40.2294 136.955 40.88C137.617 41.52 137.947 42.448 137.947 43.664V48.832H136.507V43.872C136.507 42.9974 136.289 42.3307 135.851 41.872C135.414 41.4027 134.817 41.168 134.059 41.168C133.291 41.168 132.678 41.408 132.219 41.888C131.771 42.368 131.547 43.0667 131.547 43.984V48.832H130.091V40.064H131.547V41.312C131.835 40.864 132.225 40.5174 132.715 40.272C133.217 40.0267 133.766 39.904 134.363 39.904ZM139.782 44.416C139.782 43.52 139.963 42.736 140.326 42.064C140.688 41.3814 141.184 40.8534 141.814 40.48C142.454 40.1067 143.163 39.92 143.942 39.92C144.71 39.92 145.376 40.0854 145.942 40.416C146.507 40.7467 146.928 41.1627 147.206 41.664V40.064H148.678V48.832H147.206V47.2C146.918 47.712 146.486 48.1387 145.91 48.48C145.344 48.8107 144.683 48.976 143.926 48.976C143.147 48.976 142.443 48.784 141.814 48.4C141.184 48.016 140.688 47.4774 140.326 46.784C139.963 46.0907 139.782 45.3014 139.782 44.416ZM147.206 44.432C147.206 43.7707 147.072 43.1947 146.806 42.704C146.539 42.2134 146.176 41.84 145.718 41.584C145.27 41.3174 144.774 41.184 144.23 41.184C143.686 41.184 143.19 41.312 142.742 41.568C142.294 41.824 141.936 42.1974 141.67 42.688C141.403 43.1787 141.27 43.7547 141.27 44.416C141.27 45.088 141.403 45.6747 141.67 46.176C141.936 46.6667 142.294 47.0454 142.742 47.312C143.19 47.568 143.686 47.696 144.23 47.696C144.774 47.696 145.27 47.568 145.718 47.312C146.176 47.0454 146.539 46.6667 146.806 46.176C147.072 45.6747 147.206 45.0934 147.206 44.432Z" fill="black"/>
<defs>
<linearGradient id="paint0_linear_5502_58522" x1="23.7254" y1="10.3665" x2="23.1924" y2="54.8756" gradientUnits="userSpaceOnUse">
<stop stop-color="white"/>
<stop offset="0.4959" stop-color="#D0F382"/>
<stop offset="1" stop-color="#65AE57"/>
</linearGradient>
<linearGradient id="paint1_linear_5502_58522" x1="12.2091" y1="11.3242" x2="12.2091" y2="53.7929" gradientUnits="userSpaceOnUse">
<stop stop-color="#FAD961"/>
<stop offset="1" stop-color="#F76B1C"/>
</linearGradient>
<linearGradient id="paint2_linear_5502_58522" x1="35.6477" y1="11.3289" x2="35.6477" y2="53.8679" gradientUnits="userSpaceOnUse">
<stop stop-color="#FAD961"/>
<stop offset="1" stop-color="#F76B1C"/>
</linearGradient>
<clipPath id="clip0_5502_58522">
<rect width="48" height="48" fill="white" transform="translate(0 6.83203)"/>
</clipPath>
</defs>
</svg>
